<svg xmlns="http://www.w3.org/2000/svg" xmlns:xlink="http://www.w3.org/1999/xlink" width="500" zoomAndPan="magnify" viewBox="0 0 375 374.999991" height="500" preserveAspectRatio="xMidYMid meet" version="1.0"><defs><clipPath id="7f4692eee5"><path d="M 19.953125 36.410156 L 350.5 36.410156 L 350.5 342.125 L 19.953125 342.125 Z M 19.953125 36.410156 " clip-rule="nonzero"/></clipPath><clipPath id="33abdddce6"><path d="M 47.617188 36.410156 L 347.664062 36.410156 L 347.664062 342.125 L 47.617188 342.125 Z M 47.617188 36.410156 " clip-rule="nonzero"/></clipPath><clipPath id="722a7ad115"><path d="M 20 32.730469 L 342 32.730469 L 342 332 L 20 332 Z M 20 32.730469 " clip-rule="nonzero"/></clipPath><clipPath id="a7e7982aee"><path d="M 44.070312 37.121094 L 350.5 37.121094 L 350.5 342.125 L 44.070312 342.125 Z M 44.070312 37.121094 " clip-rule="nonzero"/></clipPath><clipPath id="9b294b8756"><path d="M 82 114.4375 L 355.03125 114.4375 L 355.03125 332.910156 L 82 332.910156 Z M 82 114.4375 " clip-rule="nonzero"/></clipPath></defs><rect x="-37.5" width="450" fill="#ffffff" y="-37.499999" height="449.999989" fill-opacity="1"/><rect x="-37.5" width="450" fill="#ffffff" y="-37.499999" height="449.999989" fill-opacity="1"/><g clip-path="url(#7f4692eee5)"><path fill="#55198b" d="M 312.125 275.460938 L 299.828125 256.972656 L 295.082031 256.972656 C 290.269531 263.390625 285.1875 269.582031 279.890625 275.460938 Z M 69.839844 67.476562 C 69.839844 67.757812 69.863281 68.039062 69.902344 68.308594 C 72.957031 66.234375 76.121094 64.265625 79.378906 62.40625 C 78.402344 61.746094 77.222656 61.355469 75.953125 61.355469 C 72.582031 61.355469 69.839844 64.101562 69.839844 67.476562 Z M 350.351562 286.511719 L 336.09375 286.511719 L 342.550781 342.125 L 332.191406 342.125 L 325.734375 286.511719 L 289.21875 286.511719 L 282.761719 342.125 L 272.402344 342.125 L 278.859375 286.511719 L 269.300781 286.511719 C 241.683594 313.558594 209.351562 331.789062 177.664062 331.789062 C 163.496094 331.789062 149.464844 329.027344 135.949219 324.058594 L 138.050781 342.125 L 127.691406 342.125 L 125.066406 319.527344 C 110.457031 312.734375 96.613281 303.402344 84.054688 292.238281 L 78.257812 342.125 L 67.902344 342.125 L 74.359375 286.511719 L 60.882812 286.511719 L 60.882812 275.460938 L 67.339844 275.460938 C 38.660156 243.015625 19.953125 200.863281 19.953125 160.875 C 19.953125 123.585938 36.222656 94.699219 61.675781 74.375 C 61.234375 73.464844 60.882812 72.519531 60.625 71.542969 L 55.964844 70.519531 L 55.964844 64.433594 L 60.625 63.40625 C 60.988281 62.039062 61.527344 60.730469 62.234375 59.507812 L 59.667969 55.492188 L 63.972656 51.1875 L 67.992188 53.757812 C 69.210938 53.046875 70.519531 52.503906 71.886719 52.144531 L 72.910156 47.484375 L 79 47.484375 L 80.023438 52.144531 C 81.390625 52.503906 82.699219 53.046875 83.921875 53.757812 L 87.9375 51.1875 L 92.242188 55.492188 L 91.929688 55.980469 C 94.242188 54.921875 96.59375 53.914062 98.980469 52.949219 L 98.980469 47.484375 L 114.527344 47.484375 C 127.039062 43.703125 140.242188 41.109375 153.777344 39.714844 C 153.765625 39.597656 153.742188 39.484375 153.742188 39.363281 C 153.742188 37.949219 154.894531 36.800781 156.308594 36.800781 C 157.683594 36.800781 158.796875 37.886719 158.859375 39.242188 C 165.078125 38.742188 171.355469 38.488281 177.664062 38.488281 C 258.652344 38.488281 343.839844 50.730469 343.839844 131.722656 C 343.839844 169.101562 325.691406 214.597656 298.183594 252.753906 L 319.679688 252.753906 L 334.78125 275.460938 L 350.351562 275.460938 Z M 57.726562 41.929688 C 59.140625 41.929688 60.289062 40.777344 60.289062 39.363281 C 60.289062 37.949219 59.140625 36.800781 57.726562 36.800781 C 56.3125 36.800781 55.160156 37.949219 55.160156 39.363281 C 55.160156 40.777344 56.3125 41.929688 57.726562 41.929688 Z M 254.578125 39.363281 C 254.578125 37.949219 255.730469 36.800781 257.144531 36.800781 C 258.558594 36.800781 259.707031 37.949219 259.707031 39.363281 C 259.707031 40.777344 258.558594 41.929688 257.144531 41.929688 C 255.730469 41.929688 254.578125 40.777344 254.578125 39.363281 " fill-opacity="1" fill-rule="nonzero"/></g><g clip-path="url(#33abdddce6)"><path fill="#ea4335" d="M 250.117188 41.21875 C 251.140625 41.21875 251.972656 40.386719 251.972656 39.363281 C 251.972656 38.339844 251.140625 37.507812 250.117188 37.507812 C 249.089844 37.507812 248.257812 38.339844 248.257812 39.363281 C 248.257812 40.386719 249.089844 41.21875 250.117188 41.21875 Z M 292.097656 96.757812 L 300.734375 96.757812 L 300.734375 94.628906 L 292.097656 94.628906 Z M 288.742188 68.039062 L 276.972656 61.007812 L 276.972656 75.074219 Z M 318.160156 87.464844 L 247.554688 87.464844 L 247.554688 50.582031 L 318.160156 50.582031 Z M 304.496094 92.261719 L 298.480469 92.261719 L 298.480469 94.390625 L 304.496094 94.390625 Z M 292.097656 92.261719 L 292.097656 94.390625 L 298.113281 94.390625 L 298.113281 92.261719 Z M 304.496094 89.898438 L 292.097656 89.898438 L 292.097656 92.027344 L 304.496094 92.027344 Z M 105.949219 96.875 L 98.730469 96.875 L 98.730469 97.585938 L 105.949219 97.585938 Z M 109.707031 95.21875 L 109.707031 94.511719 L 105.113281 94.511719 L 105.113281 95.21875 Z M 103.324219 94.511719 L 98.730469 94.511719 L 98.730469 95.21875 L 103.324219 95.21875 Z M 109.707031 92.148438 L 98.730469 92.148438 L 98.730469 92.855469 L 109.707031 92.855469 Z M 60.660156 96.875 L 53.441406 96.875 L 53.441406 97.585938 L 60.660156 97.585938 Z M 64.417969 95.21875 L 64.417969 94.511719 L 59.824219 94.511719 L 59.824219 95.21875 Z M 58.035156 94.511719 L 53.441406 94.511719 L 53.441406 95.21875 L 58.035156 95.21875 Z M 64.417969 92.148438 L 53.441406 92.148438 L 53.441406 92.855469 L 64.417969 92.855469 Z M 112.316406 74.851562 L 99.6875 74.851562 L 99.6875 79.269531 L 112.316406 79.269531 Z M 112.316406 55.570312 L 99.6875 55.570312 L 99.6875 59.988281 L 112.316406 59.988281 Z M 50.699219 41.21875 C 51.722656 41.21875 52.554688 40.386719 52.554688 39.363281 C 52.554688 38.339844 51.722656 37.507812 50.699219 37.507812 C 49.675781 37.507812 48.84375 38.339844 48.84375 39.363281 C 48.84375 40.386719 49.675781 41.21875 50.699219 41.21875 Z M 65.390625 67.476562 C 65.390625 73.300781 70.128906 78.039062 75.953125 78.039062 C 81.78125 78.039062 86.519531 73.300781 86.519531 67.476562 C 86.519531 61.652344 81.78125 56.910156 75.953125 56.910156 C 70.128906 56.910156 65.390625 61.652344 65.390625 67.476562 Z M 64.683594 67.476562 C 64.683594 61.257812 69.738281 56.199219 75.953125 56.199219 C 82.171875 56.199219 87.230469 61.257812 87.230469 67.476562 C 87.230469 73.691406 82.171875 78.746094 75.953125 78.746094 C 69.738281 78.746094 64.683594 73.691406 64.683594 67.476562 Z M 199.277344 131.113281 C 198.699219 131.113281 198.167969 131.582031 198.097656 132.164062 C 198.023438 132.742188 198.433594 133.210938 199.015625 133.210938 C 199.59375 133.210938 200.121094 132.742188 200.195312 132.164062 C 200.265625 131.582031 199.855469 131.113281 199.277344 131.113281 Z M 229.386719 131.449219 L 218.824219 131.449219 C 218.433594 131.449219 218.117188 131.769531 218.117188 132.160156 C 218.117188 132.554688 218.433594 132.871094 218.824219 132.871094 L 229.386719 132.871094 C 229.777344 132.871094 230.097656 132.554688 230.097656 132.160156 C 230.097656 131.769531 229.777344 131.449219 229.386719 131.449219 Z M 149.28125 41.929688 C 150.695312 41.929688 151.847656 40.777344 151.847656 39.363281 C 151.847656 37.949219 150.695312 36.800781 149.28125 36.800781 C 147.867188 36.800781 146.71875 37.949219 146.71875 39.363281 C 146.71875 40.777344 147.867188 41.929688 149.28125 41.929688 Z M 168.410156 89.640625 C 168.410156 90.761719 169.320312 91.671875 170.441406 91.671875 L 185.804688 91.671875 C 186.921875 91.671875 187.832031 90.761719 187.832031 89.640625 C 187.832031 88.523438 186.921875 87.613281 185.804688 87.613281 L 170.441406 87.613281 C 169.320312 87.613281 168.410156 88.523438 168.410156 89.640625 Z M 154.363281 79.328125 L 169.726562 79.328125 C 170.847656 79.328125 171.757812 78.421875 171.757812 77.296875 C 171.757812 76.179688 170.847656 75.269531 169.726562 75.269531 L 154.363281 75.269531 C 153.242188 75.269531 152.332031 76.179688 152.332031 77.296875 C 152.332031 78.421875 153.242188 79.328125 154.363281 79.328125 Z M 154.363281 66.984375 L 180.980469 66.984375 C 182.101562 66.984375 183.011719 66.074219 183.011719 64.953125 C 183.011719 63.835938 182.101562 62.925781 180.980469 62.925781 L 154.363281 62.925781 C 153.242188 62.925781 152.332031 63.835938 152.332031 64.953125 C 152.332031 66.074219 153.242188 66.984375 154.363281 66.984375 Z M 186.113281 79.328125 L 191.546875 79.328125 C 192.667969 79.328125 193.574219 78.421875 193.574219 77.296875 C 193.574219 76.179688 192.667969 75.269531 191.546875 75.269531 L 186.113281 75.269531 C 184.992188 75.269531 184.082031 76.179688 184.082031 77.296875 C 184.082031 78.421875 184.992188 79.328125 186.113281 79.328125 Z M 180.574219 79.328125 C 181.695312 79.328125 182.605469 78.421875 182.605469 77.296875 C 182.605469 76.179688 181.695312 75.269531 180.574219 75.269531 L 175.144531 75.269531 C 174.023438 75.269531 173.113281 76.179688 173.113281 77.296875 C 173.113281 78.421875 174.023438 79.328125 175.144531 79.328125 Z M 154.363281 60.8125 L 159.796875 60.8125 C 160.914062 60.8125 161.828125 59.902344 161.828125 58.785156 C 161.828125 57.664062 160.914062 56.753906 159.796875 56.753906 L 154.363281 56.753906 C 153.242188 56.753906 152.332031 57.664062 152.332031 58.785156 C 152.332031 59.902344 153.242188 60.8125 154.363281 60.8125 Z M 154.363281 54.640625 L 172.65625 54.640625 C 173.777344 54.640625 174.6875 53.730469 174.6875 52.613281 C 174.6875 51.492188 173.777344 50.582031 172.65625 50.582031 L 154.363281 50.582031 C 153.242188 50.582031 152.332031 51.492188 152.332031 52.613281 C 152.332031 53.730469 153.242188 54.640625 154.363281 54.640625 Z M 193.875 322.871094 L 64.769531 322.871094 C 59.453125 322.871094 55.140625 327.179688 55.140625 332.496094 C 55.140625 337.816406 59.453125 342.125 64.769531 342.125 L 193.875 342.125 C 199.191406 342.125 203.5 337.816406 203.5 332.496094 C 203.5 327.179688 199.191406 322.871094 193.875 322.871094 Z M 342.824219 121.761719 C 342.824219 121.371094 342.507812 121.050781 342.113281 121.050781 L 307.238281 121.050781 C 306.84375 121.050781 306.53125 121.371094 306.53125 121.761719 C 306.53125 122.15625 306.84375 122.46875 307.238281 122.46875 L 342.113281 122.46875 C 342.507812 122.46875 342.824219 122.15625 342.824219 121.761719 Z M 326.4375 132.871094 L 332.417969 132.871094 C 332.808594 132.871094 333.125 132.554688 333.125 132.160156 C 333.125 131.769531 332.808594 131.449219 332.417969 131.449219 L 326.4375 131.449219 C 326.046875 131.449219 325.730469 131.769531 325.730469 132.160156 C 325.730469 132.554688 326.046875 132.871094 326.4375 132.871094 Z M 340.5 136.796875 C 340.5 136.40625 340.179688 136.085938 339.789062 136.085938 L 325.855469 136.085938 C 325.464844 136.085938 325.148438 136.40625 325.148438 136.796875 C 325.148438 137.1875 325.464844 137.503906 325.855469 137.503906 L 339.789062 137.503906 C 340.179688 137.503906 340.5 137.1875 340.5 136.796875 Z M 325.273438 142.140625 L 332.429688 142.140625 C 332.820312 142.140625 333.136719 141.820312 333.136719 141.429688 C 333.136719 141.039062 332.820312 140.722656 332.429688 140.722656 L 325.273438 140.722656 C 324.882812 140.722656 324.566406 141.039062 324.566406 141.429688 C 324.566406 141.820312 324.882812 142.140625 325.273438 142.140625 Z M 321.082031 171.710938 C 320.6875 171.710938 320.371094 172.027344 320.371094 172.417969 C 320.371094 172.808594 320.6875 173.128906 321.082031 173.128906 L 327.058594 173.128906 C 327.449219 173.128906 327.769531 172.808594 327.769531 172.417969 C 327.769531 172.027344 327.449219 171.710938 327.058594 171.710938 Z M 335.140625 177.050781 C 335.140625 176.660156 334.824219 176.34375 334.433594 176.34375 L 320.496094 176.34375 C 320.105469 176.34375 319.789062 176.660156 319.789062 177.050781 C 319.789062 177.445312 320.105469 177.761719 320.496094 177.761719 L 334.433594 177.761719 C 334.824219 177.761719 335.140625 177.445312 335.140625 177.050781 Z M 327.777344 181.6875 C 327.777344 181.292969 327.464844 180.980469 327.070312 180.980469 L 319.914062 180.980469 C 319.523438 180.980469 319.207031 181.292969 319.207031 181.6875 C 319.207031 182.078125 319.523438 182.398438 319.914062 182.398438 L 327.070312 182.398438 C 327.464844 182.398438 327.777344 182.078125 327.777344 181.6875 Z M 312.511719 137.332031 C 312.511719 136.941406 312.195312 136.621094 311.800781 136.621094 L 299.851562 136.621094 C 299.457031 136.621094 299.144531 136.941406 299.144531 137.332031 C 299.144531 137.722656 299.457031 138.039062 299.851562 138.039062 L 311.800781 138.039062 C 312.195312 138.039062 312.511719 137.722656 312.511719 137.332031 Z M 306.527344 146.601562 C 306.527344 146.207031 306.210938 145.890625 305.816406 145.890625 L 295.375 145.890625 C 294.984375 145.890625 294.664062 146.207031 294.664062 146.601562 C 294.664062 146.992188 294.984375 147.3125 295.375 147.3125 L 305.816406 147.3125 C 306.210938 147.3125 306.527344 146.992188 306.527344 146.601562 Z M 304.03125 204.816406 C 304.03125 204.425781 303.714844 204.105469 303.320312 204.105469 L 284.519531 204.105469 C 284.128906 204.105469 283.808594 204.425781 283.808594 204.816406 C 283.808594 205.207031 284.128906 205.523438 284.519531 205.523438 L 303.320312 205.523438 C 303.714844 205.523438 304.03125 205.207031 304.03125 204.816406 Z M 250.6875 126.992188 L 198.824219 126.992188 C 196.867188 126.992188 195.078125 128.578125 194.832031 130.539062 L 193.980469 137.332031 L 252.933594 137.332031 L 253.789062 130.539062 C 254.035156 128.578125 252.644531 126.992188 250.6875 126.992188 Z M 244.742188 180.316406 C 244.742188 179.921875 244.425781 179.605469 244.035156 179.605469 L 237.707031 179.605469 C 237.316406 179.605469 236.996094 179.921875 236.996094 180.316406 C 236.996094 180.707031 237.316406 181.027344 237.707031 181.027344 L 244.035156 181.027344 C 244.425781 181.027344 244.742188 180.707031 244.742188 180.316406 Z M 229.480469 183.722656 C 229.480469 183.328125 229.160156 183.011719 228.769531 183.011719 L 222.84375 183.011719 C 222.453125 183.011719 222.132812 183.328125 222.132812 183.722656 C 222.132812 184.113281 222.453125 184.429688 222.84375 184.429688 L 228.769531 184.429688 C 229.160156 184.429688 229.480469 184.113281 229.480469 183.722656 Z M 217.210938 180.316406 C 217.210938 179.921875 216.894531 179.605469 216.503906 179.605469 L 210.175781 179.605469 C 209.78125 179.605469 209.464844 179.921875 209.464844 180.316406 C 209.464844 180.707031 209.78125 181.027344 210.175781 181.027344 L 216.503906 181.027344 C 216.894531 181.027344 217.210938 180.707031 217.210938 180.316406 Z M 199.976562 207.726562 L 194.574219 207.726562 C 193.828125 207.726562 193.152344 208.332031 193.058594 209.078125 C 192.964844 209.820312 193.492188 210.425781 194.238281 210.425781 L 199.640625 210.425781 C 200.382812 210.425781 201.066406 209.820312 201.160156 209.078125 C 201.25 208.332031 200.722656 207.726562 199.976562 207.726562 Z M 194.429688 198.492188 C 195.011719 198.492188 195.535156 198.023438 195.613281 197.441406 C 195.683594 196.863281 195.273438 196.394531 194.695312 196.394531 C 194.117188 196.394531 193.585938 196.863281 193.515625 197.441406 C 193.4375 198.023438 193.851562 198.492188 194.429688 198.492188 Z M 193.808594 183.722656 C 193.808594 184.113281 194.125 184.429688 194.519531 184.429688 L 198.871094 184.429688 C 199.261719 184.429688 199.582031 184.113281 199.582031 183.722656 C 199.582031 183.328125 199.261719 183.011719 198.871094 183.011719 L 194.519531 183.011719 C 194.125 183.011719 193.808594 183.328125 193.808594 183.722656 Z M 221.660156 146.601562 C 221.660156 146.207031 221.34375 145.890625 220.949219 145.890625 L 207.554688 145.890625 C 207.164062 145.890625 206.84375 146.207031 206.84375 146.601562 C 206.84375 146.992188 207.164062 147.3125 207.554688 147.3125 L 220.949219 147.3125 C 221.34375 147.3125 221.660156 146.992188 221.660156 146.601562 Z M 267.046875 223.351562 C 267.046875 223.746094 267.363281 224.0625 267.757812 224.0625 L 294.882812 224.0625 C 295.273438 224.0625 295.589844 223.746094 295.589844 223.351562 C 295.589844 222.960938 295.273438 222.644531 294.882812 222.644531 L 267.757812 222.644531 C 267.363281 222.644531 267.046875 222.960938 267.046875 223.351562 Z M 273.199219 174.40625 C 273.199219 174.796875 273.519531 175.117188 273.910156 175.117188 L 281.0625 175.117188 C 281.453125 175.117188 281.773438 174.796875 281.773438 174.40625 C 281.773438 174.011719 281.453125 173.695312 281.0625 173.695312 L 273.910156 173.695312 C 273.519531 173.695312 273.199219 174.011719 273.199219 174.40625 Z M 275.53125 155.871094 C 275.53125 156.261719 275.847656 156.578125 276.238281 156.578125 L 284.859375 156.578125 C 285.253906 156.578125 285.570312 156.261719 285.570312 155.871094 C 285.570312 155.476562 285.253906 155.160156 284.859375 155.160156 L 276.238281 155.160156 C 275.847656 155.160156 275.53125 155.476562 275.53125 155.871094 Z M 277.277344 141.964844 C 277.277344 142.355469 277.59375 142.675781 277.984375 142.675781 L 283.960938 142.675781 C 284.355469 142.675781 284.671875 142.355469 284.671875 141.964844 C 284.671875 141.574219 284.355469 141.257812 283.960938 141.257812 L 277.984375 141.257812 C 277.59375 141.257812 277.277344 141.574219 277.277344 141.964844 Z M 301.027344 155.871094 C 301.027344 155.476562 300.707031 155.160156 300.316406 155.160156 L 287.960938 155.160156 C 287.570312 155.160156 287.25 155.476562 287.25 155.871094 C 287.25 156.261719 287.570312 156.578125 287.960938 156.578125 L 300.316406 156.578125 C 300.707031 156.578125 301.027344 156.261719 301.027344 155.871094 Z M 302.90625 170.480469 C 303.300781 170.480469 303.613281 170.164062 303.613281 169.769531 C 303.613281 169.378906 303.300781 169.0625 302.90625 169.0625 L 292.460938 169.0625 C 292.070312 169.0625 291.753906 169.378906 291.753906 169.769531 C 291.753906 170.164062 292.070312 170.480469 292.460938 170.480469 Z M 347.347656 124.128906 L 336.363281 223.226562 C 336.039062 226.152344 333.570312 228.359375 330.625 228.359375 L 176.777344 228.359375 C 175.109375 228.359375 173.582031 227.679688 172.476562 226.4375 C 172.253906 226.191406 172.066406 225.929688 171.894531 225.65625 C 170.292969 237.011719 162.640625 249.820312 162.640625 259.808594 C 162.640625 270.777344 171 286.511719 171 286.511719 C 171 286.511719 168.035156 311.078125 137.910156 311.078125 C 127.019531 311.078125 119.335938 309.167969 115.378906 307.875 C 113.328125 307.207031 111.8125 305.480469 111.351562 303.371094 C 107.847656 287.476562 110.222656 264.90625 112.691406 256.972656 C 114.363281 251.605469 112.398438 224.132812 105.957031 204.542969 C 102.667969 194.554688 110.109375 184.269531 120.628906 184.269531 L 123.117188 176.34375 C 123.117188 176.34375 131.039062 172.515625 139.410156 174.214844 C 147.78125 175.917969 151.78125 178.21875 154.898438 178.65625 L 152.878906 184.316406 C 156.328125 184.617188 159.417969 186.671875 160.996094 189.804688 C 164.402344 196.574219 169.816406 208.195312 171.59375 216.929688 L 182.023438 122.855469 C 182.347656 119.925781 184.8125 117.71875 187.761719 117.71875 L 341.609375 117.71875 C 343.273438 117.71875 344.804688 118.402344 345.910156 119.640625 C 347.023438 120.878906 347.53125 122.472656 347.347656 124.128906 Z M 203.246094 131.113281 C 202.671875 131.113281 202.140625 131.582031 202.066406 132.164062 C 201.996094 132.742188 202.40625 133.210938 202.984375 133.210938 C 203.5625 133.210938 204.09375 132.742188 204.164062 132.164062 C 204.238281 131.582031 203.828125 131.113281 203.246094 131.113281 Z M 207.222656 131.113281 C 206.640625 131.113281 206.113281 131.582031 206.039062 132.164062 C 205.96875 132.742188 206.378906 133.210938 206.957031 133.210938 C 207.539062 133.210938 208.066406 132.742188 208.136719 132.164062 C 208.210938 131.582031 207.800781 131.113281 207.222656 131.113281 Z M 98.503906 127.875 L 90.058594 127.875 L 90.058594 146.289062 L 98.503906 146.289062 Z M 68.875 146.289062 L 77.320312 146.289062 L 77.320312 130.425781 L 68.875 130.425781 Z M 56.132812 146.289062 L 47.6875 146.289062 L 47.6875 135.957031 L 56.132812 135.957031 L 56.132812 146.289062 " fill-opacity="1" fill-rule="nonzero"/></g><g clip-path="url(#722a7ad115)"><path fill="#ffffff" d="M 75.953125 74.300781 C 79.726562 74.300781 82.78125 71.246094 82.78125 67.476562 C 82.78125 63.703125 79.726562 60.648438 75.953125 60.648438 C 72.1875 60.648438 69.128906 63.703125 69.128906 67.476562 C 69.128906 71.246094 72.1875 74.300781 75.953125 74.300781 Z M 55.871094 39.363281 C 55.871094 40.386719 56.703125 41.21875 57.726562 41.21875 C 58.753906 41.21875 59.582031 40.386719 59.582031 39.363281 C 59.582031 38.339844 58.753906 37.507812 57.726562 37.507812 C 56.703125 37.507812 55.871094 38.339844 55.871094 39.363281 Z M 60.574219 55.589844 L 63.074219 59.5 C 62.21875 60.871094 61.585938 62.386719 61.207031 64.007812 L 56.675781 65 L 56.675781 69.945312 L 61.207031 70.945312 C 61.585938 72.5625 62.21875 74.082031 63.074219 75.453125 L 60.574219 79.359375 L 64.070312 82.855469 L 67.980469 80.359375 C 69.351562 81.210938 70.867188 81.84375 72.484375 82.222656 L 73.484375 86.753906 L 78.429688 86.753906 L 79.425781 82.222656 C 81.042969 81.84375 82.558594 81.210938 83.929688 80.359375 L 87.839844 82.855469 L 91.335938 79.359375 L 88.839844 75.453125 C 89.6875 74.082031 90.328125 72.5625 90.707031 70.945312 L 95.234375 69.945312 L 95.234375 65 L 90.707031 64.007812 C 90.328125 62.386719 89.6875 60.871094 88.839844 59.5 L 91.335938 55.589844 L 87.839844 52.09375 L 83.929688 54.589844 C 82.558594 53.742188 81.042969 53.101562 79.425781 52.726562 L 78.429688 48.191406 L 73.484375 48.191406 L 72.484375 52.726562 C 70.867188 53.101562 69.351562 53.742188 67.980469 54.589844 L 64.070312 52.09375 Z M 99.6875 71.890625 L 118.980469 71.890625 L 118.980469 67.476562 L 99.6875 67.476562 Z M 99.6875 52.613281 L 118.980469 52.613281 L 118.980469 48.191406 L 99.6875 48.191406 Z M 79.515625 92.148438 L 68.535156 92.148438 L 68.535156 92.855469 L 79.515625 92.855469 Z M 79.515625 94.511719 L 74.921875 94.511719 L 74.921875 95.21875 L 79.515625 95.21875 Z M 73.128906 95.21875 L 73.128906 94.511719 L 68.535156 94.511719 L 68.535156 95.21875 Z M 75.757812 96.875 L 68.535156 96.875 L 68.535156 97.585938 L 75.757812 97.585938 Z M 127.476562 87.96875 L 140.308594 87.96875 L 140.308594 68.394531 L 127.476562 68.394531 Z M 127.476562 67.6875 L 140.308594 67.6875 L 140.308594 48.117188 L 127.476562 48.117188 Z M 147.425781 89.640625 C 147.425781 90.375 148.015625 90.964844 148.746094 90.964844 L 148.871094 90.964844 C 149.601562 90.964844 150.191406 90.375 150.191406 89.640625 C 150.191406 88.914062 149.601562 88.324219 148.871094 88.324219 L 148.746094 88.324219 C 148.015625 88.324219 147.425781 88.914062 147.425781 89.640625 Z M 147.425781 83.472656 C 147.425781 84.199219 148.015625 84.792969 148.746094 84.792969 L 148.871094 84.792969 C 149.601562 84.792969 150.191406 84.199219 150.191406 83.472656 C 150.191406 82.742188 149.601562 82.148438 148.871094 82.148438 L 148.746094 82.148438 C 148.015625 82.148438 147.425781 82.742188 147.425781 83.472656 Z M 147.425781 77.300781 C 147.425781 78.03125 148.015625 78.621094 148.746094 78.621094 L 148.871094 78.621094 C 149.601562 78.621094 150.191406 78.03125 150.191406 77.300781 C 150.191406 76.570312 149.601562 75.980469 148.871094 75.980469 L 148.746094 75.980469 C 148.015625 75.980469 147.425781 76.570312 147.425781 77.300781 Z M 147.425781 71.128906 C 147.425781 71.855469 148.015625 72.449219 148.746094 72.449219 L 148.871094 72.449219 C 149.601562 72.449219 150.191406 71.855469 150.191406 71.128906 C 150.191406 70.398438 149.601562 69.804688 148.871094 69.804688 L 148.746094 69.804688 C 148.015625 69.804688 147.425781 70.398438 147.425781 71.128906 Z M 147.425781 64.953125 C 147.425781 65.683594 148.015625 66.277344 148.746094 66.277344 L 148.871094 66.277344 C 149.601562 66.277344 150.191406 65.683594 150.191406 64.953125 C 150.191406 64.226562 149.601562 63.636719 148.871094 63.636719 L 148.746094 63.636719 C 148.015625 63.636719 147.425781 64.226562 147.425781 64.953125 Z M 147.425781 58.785156 C 147.425781 59.511719 148.015625 60.105469 148.746094 60.105469 L 148.871094 60.105469 C 149.601562 60.105469 150.191406 59.511719 150.191406 58.785156 C 150.191406 58.054688 149.601562 57.460938 148.871094 57.460938 L 148.746094 57.460938 C 148.015625 57.460938 147.425781 58.054688 147.425781 58.785156 Z M 147.425781 52.613281 C 147.425781 53.339844 148.015625 53.929688 148.746094 53.929688 L 148.871094 53.929688 C 149.601562 53.929688 150.191406 53.339844 150.191406 52.613281 C 150.191406 51.882812 149.601562 51.292969 148.871094 51.292969 L 148.746094 51.292969 C 148.015625 51.292969 147.425781 51.882812 147.425781 52.613281 Z M 147.425781 46.4375 C 147.425781 47.167969 148.015625 47.761719 148.746094 47.761719 L 148.871094 47.761719 C 149.601562 47.761719 150.191406 47.167969 150.191406 46.4375 C 150.191406 45.710938 149.601562 45.117188 148.871094 45.117188 L 148.746094 45.117188 C 148.015625 45.117188 147.425781 45.710938 147.425781 46.4375 Z M 147.425781 39.363281 C 147.425781 40.386719 148.253906 41.21875 149.28125 41.21875 C 150.304688 41.21875 151.136719 40.386719 151.136719 39.363281 C 151.136719 38.339844 150.304688 37.507812 149.28125 37.507812 C 148.253906 37.507812 147.425781 38.339844 147.425781 39.363281 Z M 153.039062 89.640625 C 153.039062 90.375 153.632812 90.964844 154.363281 90.964844 L 165.566406 90.964844 C 166.292969 90.964844 166.886719 90.375 166.886719 89.640625 C 166.886719 88.914062 166.292969 88.324219 165.566406 88.324219 L 154.363281 88.324219 C 153.632812 88.324219 153.039062 88.914062 153.039062 89.640625 Z M 153.039062 83.472656 C 153.039062 84.199219 153.632812 84.792969 154.363281 84.792969 L 178.332031 84.792969 C 179.0625 84.792969 179.65625 84.199219 179.65625 83.472656 C 179.65625 82.742188 179.0625 82.148438 178.332031 82.148438 L 154.363281 82.148438 C 153.632812 82.148438 153.039062 82.742188 153.039062 83.472656 Z M 153.039062 77.300781 C 153.039062 78.03125 153.632812 78.621094 154.363281 78.621094 L 169.726562 78.621094 C 170.457031 78.621094 171.046875 78.03125 171.046875 77.300781 C 171.046875 76.570312 170.457031 75.980469 169.726562 75.980469 L 154.363281 75.980469 C 153.632812 75.980469 153.039062 76.570312 153.039062 77.300781 Z M 153.039062 71.128906 C 153.039062 71.855469 153.632812 72.449219 154.363281 72.449219 L 174.644531 72.449219 C 175.375 72.449219 175.964844 71.855469 175.964844 71.128906 C 175.964844 70.398438 175.375 69.804688 174.644531 69.804688 L 154.363281 69.804688 C 153.632812 69.804688 153.039062 70.398438 153.039062 71.128906 Z M 153.039062 64.953125 C 153.039062 65.683594 153.632812 66.277344 154.363281 66.277344 L 180.980469 66.277344 C 181.710938 66.277344 182.300781 65.683594 182.300781 64.953125 C 182.300781 64.226562 181.710938 63.636719 180.980469 63.636719 L 154.363281 63.636719 C 153.632812 63.636719 153.039062 64.226562 153.039062 64.953125 Z M 153.039062 58.785156 C 153.039062 59.511719 153.632812 60.105469 154.363281 60.105469 L 159.796875 60.105469 C 160.523438 60.105469 161.117188 59.511719 161.117188 58.785156 C 161.117188 58.054688 160.523438 57.460938 159.796875 57.460938 L 154.363281 57.460938 C 153.632812 57.460938 153.039062 58.054688 153.039062 58.785156 Z M 153.039062 52.613281 C 153.039062 53.339844 153.632812 53.929688 154.363281 53.929688 L 172.65625 53.929688 C 173.386719 53.929688 173.980469 53.339844 173.980469 52.613281 C 173.980469 51.882812 173.386719 51.292969 172.65625 51.292969 L 154.363281 51.292969 C 153.632812 51.292969 153.039062 51.882812 153.039062 52.613281 Z M 153.039062 46.4375 C 153.039062 47.167969 153.632812 47.761719 154.363281 47.761719 L 162.761719 47.761719 C 163.492188 47.761719 164.082031 47.167969 164.082031 46.4375 C 164.082031 45.710938 163.492188 45.117188 162.761719 45.117188 L 154.363281 45.117188 C 153.632812 45.117188 153.039062 45.710938 153.039062 46.4375 Z M 154.453125 39.363281 C 154.453125 40.386719 155.28125 41.21875 156.308594 41.21875 C 157.332031 41.21875 158.164062 40.386719 158.164062 39.363281 C 158.164062 38.339844 157.332031 37.507812 156.308594 37.507812 C 155.28125 37.507812 154.453125 38.339844 154.453125 39.363281 Z M 192.960938 57.460938 L 166.34375 57.460938 C 165.613281 57.460938 165.023438 58.054688 165.023438 58.785156 C 165.023438 59.511719 165.613281 60.105469 166.34375 60.105469 L 192.960938 60.105469 C 193.691406 60.105469 194.285156 59.511719 194.285156 58.785156 C 194.285156 58.054688 193.691406 57.460938 192.960938 57.460938 Z M 193.527344 64.953125 C 193.527344 64.226562 192.9375 63.636719 192.210938 63.636719 L 186.777344 63.636719 C 186.046875 63.636719 185.453125 64.226562 185.453125 64.953125 C 185.453125 65.683594 186.046875 66.277344 186.777344 66.277344 L 192.210938 66.277344 C 192.9375 66.277344 193.527344 65.683594 193.527344 64.953125 Z M 192.867188 77.300781 C 192.867188 76.570312 192.277344 75.980469 191.546875 75.980469 L 186.113281 75.980469 C 185.382812 75.980469 184.792969 76.570312 184.792969 77.300781 C 184.792969 78.03125 185.382812 78.621094 186.113281 78.621094 L 191.546875 78.621094 C 192.277344 78.621094 192.867188 78.03125 192.867188 77.300781 Z M 181.894531 77.300781 C 181.894531 76.570312 181.304688 75.980469 180.574219 75.980469 L 175.140625 75.980469 C 174.414062 75.980469 173.820312 76.570312 173.820312 77.300781 C 173.820312 78.03125 174.414062 78.621094 175.140625 78.621094 L 180.574219 78.621094 C 181.304688 78.621094 181.894531 78.03125 181.894531 77.300781 Z M 187.125 89.640625 C 187.125 88.914062 186.535156 88.324219 185.804688 88.324219 L 170.441406 88.324219 C 169.710938 88.324219 169.121094 88.914062 169.121094 89.640625 C 169.121094 90.375 169.710938 90.964844 170.441406 90.964844 L 185.804688 90.964844 C 186.535156 90.964844 187.125 90.375 187.125 89.640625 Z M 223.484375 87.96875 L 240.277344 87.96875 L 240.277344 68.394531 L 223.484375 68.394531 Z M 223.484375 67.6875 L 240.277344 67.6875 L 240.277344 48.117188 L 223.484375 48.117188 Z M 248.257812 86.753906 L 317.453125 86.753906 L 317.453125 51.292969 L 248.257812 51.292969 Z M 255.285156 39.363281 C 255.285156 40.386719 256.117188 41.21875 257.144531 41.21875 C 258.167969 41.21875 259 40.386719 259 39.363281 C 259 38.339844 258.167969 37.507812 257.144531 37.507812 C 256.117188 37.507812 255.285156 38.339844 255.285156 39.363281 Z M 303.785156 90.609375 L 292.804688 90.609375 L 292.804688 91.316406 L 303.785156 91.316406 Z M 303.785156 92.972656 L 299.191406 92.972656 L 299.191406 93.679688 L 303.785156 93.679688 Z M 297.402344 93.679688 L 297.402344 92.972656 L 292.804688 92.972656 L 292.804688 93.679688 Z M 300.027344 95.339844 L 292.804688 95.339844 L 292.804688 96.046875 L 300.027344 96.046875 Z M 281.089844 90.609375 L 270.109375 90.609375 L 270.109375 91.316406 L 281.089844 91.316406 Z M 281.089844 92.972656 L 276.492188 92.972656 L 276.492188 93.679688 L 281.089844 93.679688 Z M 274.703125 93.679688 L 274.703125 92.972656 L 270.109375 92.972656 L 270.109375 93.679688 Z M 277.328125 95.339844 L 270.109375 95.339844 L 270.109375 96.046875 L 277.328125 96.046875 Z M 44.304688 102.289062 L 44.304688 36.410156 C 44.304688 34.453125 45.890625 32.863281 47.851562 32.863281 L 123.929688 32.863281 C 125.890625 32.863281 127.476562 34.453125 127.476562 36.410156 L 127.476562 47.40625 L 140.308594 47.40625 L 140.308594 36.410156 C 140.308594 34.453125 141.898438 32.863281 143.855469 32.863281 L 219.9375 32.863281 C 221.894531 32.863281 223.484375 34.453125 223.484375 36.410156 L 223.484375 47.40625 L 240.277344 47.40625 L 240.277344 36.410156 C 240.277344 34.453125 241.863281 32.863281 243.824219 32.863281 L 319.902344 32.863281 C 321.863281 32.863281 323.449219 34.453125 323.449219 36.410156 L 323.449219 87.96875 L 332.613281 87.96875 C 332.757812 88.199219 332.890625 88.441406 333.03125 88.675781 L 323.449219 88.675781 L 323.449219 102.289062 C 323.449219 104.25 321.863281 105.835938 319.902344 105.835938 L 243.824219 105.835938 C 241.863281 105.835938 240.277344 104.25 240.277344 102.289062 L 240.277344 88.675781 L 223.484375 88.675781 L 223.484375 94.910156 C 223.484375 96.871094 221.894531 98.457031 219.9375 98.457031 L 143.855469 98.457031 C 141.898438 98.457031 140.308594 96.871094 140.308594 94.910156 L 140.308594 88.675781 L 127.476562 88.675781 L 127.476562 102.289062 C 127.476562 104.25 125.890625 105.835938 123.929688 105.835938 L 47.851562 105.835938 C 45.890625 105.835938 44.304688 104.25 44.304688 102.289062 Z M 288.511719 121.050781 C 288.121094 121.050781 287.800781 121.371094 287.800781 121.761719 C 287.800781 122.15625 288.121094 122.46875 288.511719 122.46875 L 302.839844 122.46875 C 303.234375 122.46875 303.546875 122.15625 303.546875 121.761719 C 303.546875 121.371094 303.234375 121.050781 302.839844 121.050781 Z M 304.03125 204.816406 C 304.03125 204.425781 303.714844 204.105469 303.320312 204.105469 L 284.519531 204.105469 C 284.128906 204.105469 283.808594 204.425781 283.808594 204.816406 C 283.808594 205.207031 284.128906 205.523438 284.519531 205.523438 L 303.320312 205.523438 C 303.714844 205.523438 304.03125 205.207031 304.03125 204.816406 Z M 296.171875 218.71875 C 296.171875 218.328125 295.855469 218.011719 295.464844 218.011719 L 268.339844 218.011719 C 267.949219 218.011719 267.628906 218.328125 267.628906 218.71875 C 267.628906 219.109375 267.949219 219.429688 268.339844 219.429688 L 295.464844 219.429688 C 295.855469 219.429688 296.171875 219.109375 296.171875 218.71875 Z M 295.589844 223.351562 C 295.589844 222.960938 295.273438 222.644531 294.882812 222.644531 L 267.757812 222.644531 C 267.363281 222.644531 267.046875 222.960938 267.046875 223.351562 C 267.046875 223.746094 267.363281 224.0625 267.757812 224.0625 L 294.882812 224.0625 C 295.273438 224.0625 295.589844 223.746094 295.589844 223.351562 Z M 268.792969 209.449219 C 268.792969 209.84375 269.113281 210.15625 269.503906 210.15625 L 291.421875 210.15625 C 291.8125 210.15625 292.132812 209.84375 292.132812 209.449219 C 292.132812 209.058594 291.8125 208.738281 291.421875 208.738281 L 269.503906 208.738281 C 269.113281 208.738281 268.792969 209.058594 268.792969 209.449219 Z M 269.378906 204.816406 C 269.378906 205.207031 269.695312 205.523438 270.089844 205.523438 L 279.488281 205.523438 C 279.878906 205.523438 280.199219 205.207031 280.199219 204.816406 C 280.199219 204.425781 279.878906 204.105469 279.488281 204.105469 L 270.089844 204.105469 C 269.695312 204.105469 269.378906 204.425781 269.378906 204.816406 Z M 269.960938 200.183594 C 269.960938 200.574219 270.277344 200.890625 270.671875 200.890625 L 297.792969 200.890625 C 298.1875 200.890625 298.503906 200.574219 298.503906 200.183594 C 298.503906 199.789062 298.1875 199.472656 297.792969 199.472656 L 270.671875 199.472656 C 270.277344 199.472656 269.960938 199.789062 269.960938 200.183594 Z M 264.742188 200.183594 C 264.742188 199.789062 264.421875 199.472656 264.03125 199.472656 L 259.300781 199.472656 C 258.910156 199.472656 258.59375 199.789062 258.59375 200.183594 C 258.59375 200.574219 258.910156 200.890625 259.300781 200.890625 L 264.03125 200.890625 C 264.421875 200.890625 264.742188 200.574219 264.742188 200.183594 Z M 264.15625 204.816406 C 264.15625 204.425781 263.839844 204.105469 263.445312 204.105469 L 258.71875 204.105469 C 258.324219 204.105469 258.011719 204.425781 258.011719 204.816406 C 258.011719 205.207031 258.324219 205.523438 258.71875 205.523438 L 263.445312 205.523438 C 263.839844 205.523438 264.15625 205.207031 264.15625 204.816406 Z M 263.574219 209.449219 C 263.574219 209.058594 263.257812 208.738281 262.863281 208.738281 L 258.136719 208.738281 C 257.746094 208.738281 257.425781 209.058594 257.425781 209.449219 C 257.425781 209.84375 257.746094 210.15625 258.136719 210.15625 L 262.863281 210.15625 C 263.257812 210.15625 263.574219 209.84375 263.574219 209.449219 Z M 262.410156 218.71875 C 262.410156 218.328125 262.089844 218.011719 261.699219 218.011719 L 256.972656 218.011719 C 256.582031 218.011719 256.261719 218.328125 256.261719 218.71875 C 256.261719 219.109375 256.582031 219.429688 256.972656 219.429688 L 261.699219 219.429688 C 262.089844 219.429688 262.410156 219.109375 262.410156 218.71875 Z M 261.828125 223.351562 C 261.828125 222.960938 261.507812 222.644531 261.117188 222.644531 L 256.390625 222.644531 C 255.996094 222.644531 255.679688 222.960938 255.679688 223.351562 C 255.679688 223.746094 255.996094 224.0625 256.390625 224.0625 L 261.117188 224.0625 C 261.507812 224.0625 261.828125 223.746094 261.828125 223.351562 Z M 313.414062 197.332031 L 309.511719 228.359375 L 300.996094 228.359375 C 301.070312 228.25 301.117188 228.125 301.117188 227.988281 C 301.117188 227.59375 300.800781 227.277344 300.410156 227.277344 L 281.605469 227.277344 C 281.214844 227.277344 280.898438 227.59375 280.898438 227.988281 C 280.898438 228.125 280.945312 228.25 281.019531 228.359375 L 277.164062 228.359375 C 277.234375 228.25 277.285156 228.125 277.285156 227.988281 C 277.285156 227.59375 276.96875 227.277344 276.578125 227.277344 L 267.171875 227.277344 C 266.78125 227.277344 266.464844 227.59375 266.464844 227.988281 C 266.464844 228.125 266.515625 228.25 266.585938 228.359375 L 261.121094 228.359375 C 261.195312 228.25 261.242188 228.125 261.242188 227.988281 C 261.242188 227.59375 260.929688 227.277344 260.535156 227.277344 L 255.808594 227.277344 C 255.414062 227.277344 255.097656 227.59375 255.097656 227.988281 C 255.097656 228.125 255.148438 228.25 255.21875 228.359375 L 250.558594 228.359375 L 254.457031 197.332031 C 254.703125 195.371094 256.492188 193.785156 258.449219 193.785156 L 310.3125 193.785156 C 312.269531 193.785156 313.660156 195.371094 313.414062 197.332031 Z M 212.71875 207.726562 L 207.316406 207.726562 C 206.570312 207.726562 205.890625 208.332031 205.800781 209.078125 C 205.707031 209.820312 206.230469 210.425781 206.976562 210.425781 L 212.378906 210.425781 C 213.125 210.425781 213.804688 209.820312 213.898438 209.078125 C 213.992188 208.332031 213.464844 207.726562 212.71875 207.726562 Z M 199.976562 207.726562 L 194.574219 207.726562 C 193.828125 207.726562 193.152344 208.332031 193.058594 209.078125 C 192.964844 209.820312 193.492188 210.425781 194.238281 210.425781 L 199.640625 210.425781 C 200.382812 210.425781 201.066406 209.820312 201.160156 209.078125 C 201.25 208.332031 200.722656 207.726562 199.976562 207.726562 Z M 190.722656 196.394531 C 190.140625 196.394531 189.613281 196.863281 189.539062 197.441406 C 189.46875 198.023438 189.878906 198.492188 190.457031 198.492188 C 191.035156 198.492188 191.566406 198.023438 191.636719 197.441406 C 191.714844 196.863281 191.300781 196.394531 190.722656 196.394531 Z M 194.429688 198.492188 C 195.011719 198.492188 195.535156 198.023438 195.613281 197.441406 C 195.683594 196.863281 195.273438 196.394531 194.695312 196.394531 C 194.117188 196.394531 193.585938 196.863281 193.515625 197.441406 C 193.4375 198.023438 193.851562 198.492188 194.429688 198.492188 Z M 198.402344 198.492188 C 198.980469 198.492188 199.511719 198.023438 199.582031 197.441406 C 199.65625 196.863281 199.246094 196.394531 198.664062 196.394531 C 198.085938 196.394531 197.558594 196.863281 197.484375 197.441406 C 197.414062 198.023438 197.824219 198.492188 198.402344 198.492188 Z M 209.449219 202.902344 L 198.878906 202.902344 C 198.488281 202.902344 198.167969 203.222656 198.167969 203.613281 C 198.167969 204.007812 198.488281 204.324219 198.878906 204.324219 L 209.449219 204.324219 C 209.84375 204.324219 210.160156 204.007812 210.160156 203.613281 C 210.160156 203.222656 209.84375 202.902344 209.449219 202.902344 Z M 220.1875 193.777344 C 222.144531 193.777344 223.535156 195.367188 223.289062 197.324219 L 221.800781 209.148438 C 221.558594 211.105469 219.765625 212.691406 217.8125 212.691406 L 187.691406 212.691406 C 185.730469 212.691406 184.34375 211.105469 184.589844 209.148438 L 186.074219 197.324219 C 186.320312 195.367188 188.109375 193.777344 190.066406 193.777344 Z M 204.164062 132.164062 C 204.238281 131.582031 203.828125 131.113281 203.246094 131.113281 C 202.671875 131.113281 202.140625 131.582031 202.066406 132.164062 C 201.996094 132.742188 202.40625 133.210938 202.984375 133.210938 C 203.5625 133.210938 204.09375 132.742188 204.164062 132.164062 Z M 241.613281 183.722656 C 241.613281 183.328125 241.292969 183.011719 240.902344 183.011719 L 237.277344 183.011719 C 236.886719 183.011719 236.570312 183.328125 236.570312 183.722656 C 236.570312 184.113281 236.886719 184.429688 237.277344 184.429688 L 240.902344 184.429688 C 241.292969 184.429688 241.613281 184.113281 241.613281 183.722656 Z M 236.414062 147.3125 C 236.804688 147.3125 237.125 146.992188 237.125 146.601562 C 237.125 146.207031 236.804688 145.890625 236.414062 145.890625 L 225.855469 145.890625 C 225.464844 145.890625 225.144531 146.207031 225.144531 146.601562 C 225.144531 146.992188 225.464844 147.3125 225.855469 147.3125 Z M 234.359375 152.8125 L 208.664062 152.8125 C 207.621094 152.8125 206.667969 153.660156 206.535156 154.703125 L 205.757812 160.882812 C 205.628906 161.925781 206.367188 162.773438 207.414062 162.773438 L 233.105469 162.773438 C 234.152344 162.773438 235.105469 161.925781 235.234375 160.882812 L 236.011719 154.703125 C 236.144531 153.660156 235.398438 152.8125 234.359375 152.8125 Z M 223.273438 181.027344 L 226.898438 181.027344 C 227.289062 181.027344 227.605469 180.707031 227.605469 180.316406 C 227.605469 179.921875 227.289062 179.605469 226.898438 179.605469 L 223.273438 179.605469 C 222.878906 179.605469 222.5625 179.921875 222.5625 180.316406 C 222.5625 180.707031 222.878906 181.027344 223.273438 181.027344 Z M 229.480469 183.722656 C 229.480469 183.328125 229.160156 183.011719 228.769531 183.011719 L 222.84375 183.011719 C 222.453125 183.011719 222.132812 183.328125 222.132812 183.722656 C 222.132812 184.113281 222.453125 184.429688 222.84375 184.429688 L 228.769531 184.429688 C 229.160156 184.429688 229.480469 184.113281 229.480469 183.722656 Z M 217.210938 180.316406 C 217.210938 179.921875 216.894531 179.605469 216.503906 179.605469 L 210.175781 179.605469 C 209.78125 179.605469 209.464844 179.921875 209.464844 180.316406 C 209.464844 180.707031 209.78125 181.027344 210.175781 181.027344 L 216.503906 181.027344 C 216.894531 181.027344 217.210938 180.707031 217.210938 180.316406 Z M 214.082031 183.722656 C 214.082031 183.328125 213.761719 183.011719 213.371094 183.011719 L 209.746094 183.011719 C 209.355469 183.011719 209.035156 183.328125 209.035156 183.722656 C 209.035156 184.113281 209.355469 184.429688 209.746094 184.429688 L 213.371094 184.429688 C 213.761719 184.429688 214.082031 184.113281 214.082031 183.722656 Z M 202.90625 180.316406 C 202.90625 179.921875 202.589844 179.605469 202.195312 179.605469 L 194.945312 179.605469 C 194.554688 179.605469 194.238281 179.921875 194.238281 180.316406 C 194.238281 180.707031 194.554688 181.027344 194.945312 181.027344 L 202.195312 181.027344 C 202.589844 181.027344 202.90625 180.707031 202.90625 180.316406 Z M 199.582031 183.722656 C 199.582031 183.328125 199.261719 183.011719 198.871094 183.011719 L 194.519531 183.011719 C 194.125 183.011719 193.808594 183.328125 193.808594 183.722656 C 193.808594 184.113281 194.125 184.429688 194.519531 184.429688 L 198.871094 184.429688 C 199.261719 184.429688 199.582031 184.113281 199.582031 183.722656 Z M 206.84375 146.601562 C 206.84375 146.992188 207.164062 147.3125 207.554688 147.3125 L 220.949219 147.3125 C 221.34375 147.3125 221.660156 146.992188 221.660156 146.601562 C 221.660156 146.207031 221.34375 145.890625 220.949219 145.890625 L 207.554688 145.890625 C 207.164062 145.890625 206.84375 146.207031 206.84375 146.601562 Z M 236.996094 180.316406 C 236.996094 180.707031 237.316406 181.027344 237.707031 181.027344 L 244.035156 181.027344 C 244.425781 181.027344 244.742188 180.707031 244.742188 180.316406 C 244.742188 179.921875 244.425781 179.605469 244.035156 179.605469 L 237.707031 179.605469 C 237.316406 179.605469 236.996094 179.921875 236.996094 180.316406 Z M 242.945312 188.59375 L 191.085938 188.59375 C 189.125 188.59375 187.738281 187.003906 187.984375 185.046875 L 193.980469 137.332031 L 252.933594 137.332031 L 253.789062 130.539062 L 246.933594 185.046875 C 246.691406 187.003906 244.902344 188.59375 242.945312 188.59375 Z M 322.359375 223.332031 L 315.203125 223.332031 C 314.8125 223.332031 314.492188 223.652344 314.492188 224.042969 C 314.492188 224.433594 314.8125 224.75 315.203125 224.75 L 322.359375 224.75 C 322.75 224.75 323.070312 224.433594 323.070312 224.042969 C 323.070312 223.652344 322.75 223.332031 322.359375 223.332031 Z M 325.855469 218.699219 L 315.785156 218.699219 C 315.394531 218.699219 315.078125 219.015625 315.078125 219.40625 C 315.078125 219.800781 315.394531 220.117188 315.785156 220.117188 L 325.855469 220.117188 C 326.25 220.117188 326.566406 219.800781 326.566406 219.40625 C 326.566406 219.015625 326.25 218.699219 325.855469 218.699219 Z M 316.367188 215.484375 L 322.34375 215.484375 C 322.734375 215.484375 323.054688 215.164062 323.054688 214.773438 C 323.054688 214.382812 322.734375 214.066406 322.34375 214.066406 L 316.367188 214.066406 C 315.976562 214.066406 315.660156 214.382812 315.660156 214.773438 C 315.660156 215.164062 315.976562 215.484375 316.367188 215.484375 Z M 329.324219 161.714844 L 322.171875 161.714844 C 321.777344 161.714844 321.460938 162.035156 321.460938 162.425781 C 321.460938 162.820312 321.777344 163.132812 322.171875 163.132812 L 329.324219 163.132812 C 329.714844 163.132812 330.035156 162.820312 330.035156 162.425781 C 330.035156 162.035156 329.714844 161.714844 329.324219 161.714844 Z M 332.820312 157.082031 L 322.753906 157.082031 C 322.359375 157.082031 322.042969 157.398438 322.042969 157.792969 C 322.042969 158.183594 322.359375 158.5 322.753906 158.5 L 332.820312 158.5 C 333.214844 158.5 333.53125 158.183594 333.53125 157.792969 C 333.53125 157.398438 333.214844 157.082031 332.820312 157.082031 Z M 323.335938 152.449219 C 322.945312 152.449219 322.625 152.765625 322.625 153.15625 C 322.625 153.550781 322.945312 153.867188 323.335938 153.867188 L 329.3125 153.867188 C 329.703125 153.867188 330.019531 153.550781 330.019531 153.15625 C 330.019531 152.765625 329.703125 152.449219 329.3125 152.449219 Z M 312.511719 137.332031 C 312.511719 136.941406 312.195312 136.621094 311.800781 136.621094 L 299.851562 136.621094 C 299.457031 136.621094 299.144531 136.941406 299.144531 137.332031 C 299.144531 137.722656 299.457031 138.039062 299.851562 138.039062 L 311.800781 138.039062 C 312.195312 138.039062 312.511719 137.722656 312.511719 137.332031 Z M 306.527344 146.601562 C 306.527344 146.207031 306.210938 145.890625 305.816406 145.890625 L 295.375 145.890625 C 294.984375 145.890625 294.664062 146.207031 294.664062 146.601562 C 294.664062 146.992188 294.984375 147.3125 295.375 147.3125 L 305.816406 147.3125 C 306.210938 147.3125 306.527344 146.992188 306.527344 146.601562 Z M 303.613281 169.769531 C 303.613281 169.378906 303.300781 169.0625 302.90625 169.0625 L 292.460938 169.0625 C 292.070312 169.0625 291.753906 169.378906 291.753906 169.769531 C 291.753906 170.164062 292.070312 170.480469 292.460938 170.480469 L 302.90625 170.480469 C 303.300781 170.480469 303.613281 170.164062 303.613281 169.769531 Z M 298.429688 174.40625 C 298.429688 174.011719 298.113281 173.695312 297.722656 173.695312 L 285.101562 173.695312 C 284.710938 173.695312 284.394531 174.011719 284.394531 174.40625 C 284.394531 174.796875 284.710938 175.117188 285.101562 175.117188 L 297.722656 175.117188 C 298.113281 175.117188 298.429688 174.796875 298.429688 174.40625 Z M 291.277344 179.039062 C 291.277344 178.648438 290.960938 178.328125 290.570312 178.328125 L 273.328125 178.328125 C 272.933594 178.328125 272.617188 178.648438 272.617188 179.039062 C 272.617188 179.433594 272.933594 179.75 273.328125 179.75 L 290.570312 179.75 C 290.960938 179.75 291.277344 179.433594 291.277344 179.039062 Z M 272.636719 137.332031 C 272.636719 136.941406 272.320312 136.621094 271.929688 136.621094 L 267.199219 136.621094 C 266.808594 136.621094 266.492188 136.941406 266.492188 137.332031 C 266.492188 137.722656 266.808594 138.039062 267.199219 138.039062 L 271.929688 138.039062 C 272.320312 138.039062 272.636719 137.722656 272.636719 137.332031 Z M 272.054688 141.964844 C 272.054688 141.574219 271.738281 141.257812 271.347656 141.257812 L 266.617188 141.257812 C 266.226562 141.257812 265.910156 141.574219 265.910156 141.964844 C 265.910156 142.355469 266.226562 142.675781 266.617188 142.675781 L 271.347656 142.675781 C 271.738281 142.675781 272.054688 142.355469 272.054688 141.964844 Z M 271.472656 146.601562 C 271.472656 146.207031 271.15625 145.890625 270.765625 145.890625 L 266.039062 145.890625 C 265.644531 145.890625 265.328125 146.207031 265.328125 146.601562 C 265.328125 146.992188 265.644531 147.3125 266.039062 147.3125 L 270.765625 147.3125 C 271.15625 147.3125 271.472656 146.992188 271.472656 146.601562 Z M 270.890625 151.234375 C 270.890625 150.84375 270.574219 150.523438 270.183594 150.523438 L 265.453125 150.523438 C 265.0625 150.523438 264.742188 150.84375 264.742188 151.234375 C 264.742188 151.625 265.0625 151.945312 265.453125 151.945312 L 270.183594 151.945312 C 270.574219 151.945312 270.890625 151.625 270.890625 151.234375 Z M 270.308594 155.871094 C 270.308594 155.476562 269.992188 155.160156 269.601562 155.160156 L 264.871094 155.160156 C 264.480469 155.160156 264.160156 155.476562 264.160156 155.871094 C 264.160156 156.261719 264.480469 156.578125 264.871094 156.578125 L 269.601562 156.578125 C 269.992188 156.578125 270.308594 156.261719 270.308594 155.871094 Z M 269.144531 165.136719 C 269.144531 164.746094 268.828125 164.429688 268.433594 164.429688 L 263.707031 164.429688 C 263.3125 164.429688 262.996094 164.746094 262.996094 165.136719 C 262.996094 165.527344 263.3125 165.847656 263.707031 165.847656 L 268.433594 165.847656 C 268.828125 165.847656 269.144531 165.527344 269.144531 165.136719 Z M 268.5625 169.769531 C 268.5625 169.378906 268.242188 169.0625 267.851562 169.0625 L 263.121094 169.0625 C 262.730469 169.0625 262.414062 169.378906 262.414062 169.769531 C 262.414062 170.164062 262.730469 170.480469 263.121094 170.480469 L 267.851562 170.480469 C 268.242188 170.480469 268.5625 170.164062 268.5625 169.769531 Z M 267.980469 174.40625 C 267.980469 174.011719 267.660156 173.695312 267.269531 173.695312 L 262.539062 173.695312 C 262.148438 173.695312 261.832031 174.011719 261.832031 174.40625 C 261.832031 174.796875 262.148438 175.117188 262.539062 175.117188 L 267.269531 175.117188 C 267.660156 175.117188 267.980469 174.796875 267.980469 174.40625 Z M 267.398438 179.039062 C 267.398438 178.648438 267.078125 178.328125 266.6875 178.328125 L 261.957031 178.328125 C 261.566406 178.328125 261.25 178.648438 261.25 179.039062 C 261.25 179.433594 261.566406 179.75 261.957031 179.75 L 266.6875 179.75 C 267.078125 179.75 267.398438 179.433594 267.398438 179.039062 Z M 273.199219 174.40625 C 273.199219 174.796875 273.519531 175.117188 273.910156 175.117188 L 281.0625 175.117188 C 281.453125 175.117188 281.773438 174.796875 281.773438 174.40625 C 281.773438 174.011719 281.453125 173.695312 281.0625 173.695312 L 273.910156 173.695312 C 273.519531 173.695312 273.199219 174.011719 273.199219 174.40625 Z M 273.78125 169.769531 C 273.78125 170.164062 274.101562 170.480469 274.492188 170.480469 L 288.425781 170.480469 C 288.816406 170.480469 289.132812 170.164062 289.132812 169.769531 C 289.132812 169.378906 288.816406 169.0625 288.425781 169.0625 L 274.492188 169.0625 C 274.101562 169.0625 273.78125 169.378906 273.78125 169.769531 Z M 274.363281 165.136719 C 274.363281 165.527344 274.683594 165.847656 275.074219 165.847656 L 281.050781 165.847656 C 281.441406 165.847656 281.757812 165.527344 281.757812 165.136719 C 281.757812 164.746094 281.441406 164.429688 281.050781 164.429688 L 275.074219 164.429688 C 274.683594 164.429688 274.363281 164.746094 274.363281 165.136719 Z M 275.53125 155.871094 C 275.53125 156.261719 275.847656 156.578125 276.238281 156.578125 L 284.859375 156.578125 C 285.253906 156.578125 285.570312 156.261719 285.570312 155.871094 C 285.570312 155.476562 285.253906 155.160156 284.859375 155.160156 L 276.238281 155.160156 C 275.847656 155.160156 275.53125 155.476562 275.53125 155.871094 Z M 276.113281 151.234375 C 276.113281 151.625 276.429688 151.945312 276.820312 151.945312 L 283.976562 151.945312 C 284.367188 151.945312 284.683594 151.625 284.683594 151.234375 C 284.683594 150.84375 284.367188 150.523438 283.976562 150.523438 L 276.820312 150.523438 C 276.429688 150.523438 276.113281 150.84375 276.113281 151.234375 Z M 276.695312 146.601562 C 276.695312 146.992188 277.011719 147.3125 277.402344 147.3125 L 291.335938 147.3125 C 291.726562 147.3125 292.046875 146.992188 292.046875 146.601562 C 292.046875 146.207031 291.726562 145.890625 291.335938 145.890625 L 277.402344 145.890625 C 277.011719 145.890625 276.695312 146.207031 276.695312 146.601562 Z M 277.277344 141.964844 C 277.277344 142.355469 277.59375 142.675781 277.984375 142.675781 L 283.960938 142.675781 C 284.355469 142.675781 284.671875 142.355469 284.671875 141.964844 C 284.671875 141.574219 284.355469 141.257812 283.960938 141.257812 L 277.984375 141.257812 C 277.59375 141.257812 277.277344 141.574219 277.277344 141.964844 Z M 277.859375 137.332031 C 277.859375 137.722656 278.175781 138.039062 278.570312 138.039062 L 295.8125 138.039062 C 296.203125 138.039062 296.523438 137.722656 296.523438 137.332031 C 296.523438 136.941406 296.203125 136.621094 295.8125 136.621094 L 278.570312 136.621094 C 278.175781 136.621094 277.859375 136.941406 277.859375 137.332031 Z M 299.113281 142.675781 C 299.503906 142.675781 299.820312 142.355469 299.820312 141.964844 C 299.820312 141.574219 299.503906 141.257812 299.113281 141.257812 L 287.160156 141.257812 C 286.769531 141.257812 286.449219 141.574219 286.449219 141.964844 C 286.449219 142.355469 286.769531 142.675781 287.160156 142.675781 Z M 293.460938 151.234375 C 293.460938 150.84375 293.144531 150.523438 292.753906 150.523438 L 288.015625 150.523438 C 287.621094 150.523438 287.304688 150.84375 287.304688 151.234375 C 287.304688 151.625 287.621094 151.945312 288.015625 151.945312 L 292.753906 151.945312 C 293.144531 151.945312 293.460938 151.625 293.460938 151.234375 Z M 296.199219 164.429688 L 284.246094 164.429688 C 283.855469 164.429688 283.539062 164.746094 283.539062 165.136719 C 283.539062 165.527344 283.855469 165.847656 284.246094 165.847656 L 296.199219 165.847656 C 296.59375 165.847656 296.910156 165.527344 296.910156 165.136719 C 296.910156 164.746094 296.59375 164.429688 296.199219 164.429688 Z M 300.316406 156.578125 C 300.707031 156.578125 301.027344 156.261719 301.027344 155.871094 C 301.027344 155.476562 300.707031 155.160156 300.316406 155.160156 L 287.960938 155.160156 C 287.570312 155.160156 287.25 155.476562 287.25 155.871094 C 287.25 156.261719 287.570312 156.578125 287.960938 156.578125 Z M 314.957031 185.046875 C 314.710938 187.003906 312.921875 188.59375 310.964844 188.59375 L 259.101562 188.59375 C 257.144531 188.59375 255.753906 187.003906 256 185.046875 L 262.851562 130.539062 C 263.097656 128.578125 264.886719 126.992188 266.84375 126.992188 L 318.703125 126.992188 C 320.664062 126.992188 322.050781 128.578125 321.808594 130.539062 Z M 129.554688 148.808594 L 128.894531 143.367188 C 128.257812 138.082031 129.816406 133.089844 132.804688 129.238281 L 103.75 129.238281 L 103.75 148.730469 C 103.75 148.757812 103.742188 148.78125 103.742188 148.808594 Z M 97.796875 128.582031 L 90.769531 128.582031 L 90.769531 145.582031 L 97.796875 145.582031 Z M 87.203125 129.238281 L 87.203125 126.453125 L 80.175781 126.453125 L 80.175781 145.582031 L 87.203125 145.582031 Z M 76.609375 131.132812 L 69.585938 131.132812 L 69.585938 145.582031 L 76.609375 145.582031 Z M 66.019531 139.675781 L 58.992188 139.675781 L 58.992188 145.582031 L 66.019531 145.582031 Z M 55.425781 136.667969 L 48.398438 136.667969 L 48.398438 145.582031 L 55.425781 145.582031 Z M 127.226562 169.796875 L 20.269531 169.796875 C 20.253906 169.5625 20.234375 169.324219 20.21875 169.089844 L 127.425781 169.089844 L 129.371094 162.238281 C 130.207031 159.285156 130.449219 156.195312 130.078125 153.148438 L 129.640625 149.519531 L 103.652344 149.519531 C 103.292969 151.09375 101.890625 152.277344 100.203125 152.277344 L 47.851562 152.277344 C 46.164062 152.277344 44.757812 151.09375 44.398438 149.519531 L 20.476562 149.519531 C 20.5 149.28125 20.527344 149.046875 20.550781 148.808594 L 44.3125 148.808594 C 44.3125 148.78125 44.304688 148.757812 44.304688 148.730469 L 44.304688 129.238281 L 24.257812 129.238281 C 24.324219 129 24.398438 128.765625 24.46875 128.527344 L 44.304688 128.527344 L 44.304688 121.265625 C 44.304688 119.304688 45.890625 117.71875 47.851562 117.71875 L 100.203125 117.71875 C 102.160156 117.71875 103.75 119.304688 103.75 121.265625 L 103.75 128.527344 L 133.386719 128.527344 C 136.902344 124.410156 142.132812 121.761719 148.046875 121.761719 C 153.886719 121.761719 159.164062 124.367188 162.71875 128.527344 L 181.394531 128.527344 L 181.316406 129.238281 L 163.296875 129.238281 C 165.441406 132 166.855469 135.367188 167.234375 139.074219 L 167.429688 140.949219 L 171.46875 148.808594 L 179.148438 148.808594 L 179.066406 149.519531 L 171.730469 149.519531 C 171.746094 149.96875 171.464844 150.402344 171 150.539062 L 169.414062 151.003906 C 168.949219 151.136719 168.648438 151.574219 168.683594 152.054688 C 168.929688 155.210938 169.636719 166.464844 167.429688 167.652344 C 164.859375 169.039062 152.582031 166.554688 152.582031 166.554688 C 152.347656 167.394531 152.15625 168.238281 151.996094 169.089844 L 176.898438 169.089844 L 176.820312 169.796875 L 151.875 169.796875 C 151.4375 172.429688 151.332031 175.105469 151.558594 177.757812 C 148.808594 176.820312 145.128906 175.378906 139.410156 174.214844 C 133.929688 173.101562 128.648438 174.359375 125.648438 175.359375 Z M 111.140625 226.914062 C 110.269531 221.40625 109.117188 215.71875 107.679688 210.359375 L 107.683594 210.359375 C 107.65625 210.265625 107.632812 210.175781 107.609375 210.082031 C 107.09375 208.1875 106.542969 206.332031 105.957031 204.542969 C 103.992188 198.570312 105.859375 192.5 109.925781 188.578125 C 109.730469 188.664062 109.53125 188.742188 109.335938 188.839844 C 109.003906 189.003906 108.6875 189.1875 108.375 189.367188 L 22.972656 189.367188 C 23.019531 189.605469 23.066406 189.84375 23.117188 190.078125 L 107.285156 190.078125 C 101.148438 194.480469 99.171875 202.914062 102.964844 209.652344 L 28.554688 209.652344 C 28.632812 209.886719 28.710938 210.125 28.792969 210.359375 L 103.359375 210.359375 Z M 177.664062 331.789062 C 180.558594 331.789062 183.457031 331.628906 186.363281 331.332031 L 167.804688 331.332031 C 171.082031 331.625 174.367188 331.789062 177.664062 331.789062 Z M 137.910156 311.078125 C 137.222656 311.078125 136.550781 311.066406 135.890625 311.054688 L 109.304688 311.054688 C 109.695312 311.292969 110.089844 311.523438 110.480469 311.761719 L 238.03125 311.761719 C 238.398438 311.527344 238.761719 311.289062 239.125 311.054688 L 138.773438 311.054688 C 138.484375 311.058594 138.207031 311.078125 137.910156 311.078125 Z M 109.75 290.773438 L 82.414062 290.773438 C 82.675781 291.011719 82.9375 291.246094 83.195312 291.480469 L 109.792969 291.480469 C 109.777344 291.246094 109.761719 291.011719 109.75 290.773438 Z M 169.671875 291.480469 L 264.066406 291.480469 C 264.320312 291.246094 264.578125 291.011719 264.832031 290.773438 L 169.921875 290.773438 C 169.84375 291.003906 169.761719 291.238281 169.671875 291.480469 Z M 110.308594 270.492188 L 63.074219 270.492188 C 63.273438 270.730469 63.476562 270.964844 63.675781 271.203125 L 110.238281 271.203125 C 110.257812 270.964844 110.285156 270.726562 110.308594 270.492188 Z M 113.253906 250.210938 L 48.289062 250.210938 C 48.441406 250.449219 48.59375 250.683594 48.746094 250.917969 L 113.253906 250.917969 C 113.253906 250.6875 113.253906 250.453125 113.253906 250.210938 Z M 222.550781 260.382812 C 224.214844 260.652344 225.847656 260.910156 227.429688 261.152344 L 227.25 260.871094 L 223.042969 259.980469 Z M 259.632812 270.492188 L 270.308594 270.492188 L 266.929688 268.136719 L 260.890625 269.515625 Z M 177.722656 229.929688 L 313.011719 229.929688 C 312.875 230.167969 312.738281 230.40625 312.601562 230.640625 L 178.082031 230.640625 C 182.578125 239.347656 186.699219 246.582031 189.183594 250.210938 L 299.992188 250.210938 C 299.828125 250.449219 299.660156 250.683594 299.496094 250.917969 L 189.683594 250.917969 C 190.328125 251.816406 190.835938 252.40625 191.164062 252.625 C 193.800781 254.378906 200.3125 256.140625 207.921875 257.722656 L 219.992188 253.167969 C 221.226562 252.703125 222.605469 252.863281 223.699219 253.59375 L 229.660156 257.578125 L 232.148438 261.855469 C 236.804688 262.527344 240.632812 263.035156 242.761719 263.304688 L 249.371094 263.054688 L 263.542969 258.160156 C 264.816406 257.722656 266.222656 257.921875 267.320312 258.703125 L 273.292969 262.941406 L 277.402344 270.492188 L 284.253906 270.492188 C 284.050781 270.726562 283.847656 270.964844 283.644531 271.203125 L 277.789062 271.203125 L 277.925781 271.457031 C 278.191406 271.941406 277.992188 272.546875 277.488281 272.777344 C 276.488281 272.710938 275.34375 272.210938 274.414062 271.515625 L 274.65625 273.148438 C 274.765625 273.890625 274.15625 274.550781 273.40625 274.496094 C 272.234375 274.414062 271.269531 273.542969 271.066406 272.386719 L 270.859375 271.203125 L 258.714844 271.203125 L 255.808594 273.449219 C 254.441406 274.503906 252.847656 275.210938 251.167969 275.519531 C 250.070312 275.71875 248.945312 275.683594 247.839844 275.535156 L 241.140625 274.609375 L 191.246094 274.253906 C 185.222656 274.003906 180.785156 272.859375 177.410156 271.203125 L 164.683594 271.203125 C 164.648438 271.089844 164.613281 270.972656 164.582031 270.859375 L 164.578125 270.859375 C 164.550781 270.765625 164.523438 270.667969 164.496094 270.574219 C 164.488281 270.546875 164.480469 270.519531 164.46875 270.492188 L 164.472656 270.492188 C 163.40625 266.875 162.640625 263.121094 162.640625 259.808594 C 162.640625 257.921875 162.917969 255.933594 163.375 253.871094 C 163.488281 253.890625 163.609375 253.914062 163.726562 253.9375 L 156.242188 239.488281 C 155.851562 239.574219 155.449219 239.617188 155.039062 239.617188 C 151.316406 239.617188 147.640625 236.125 144.878906 230.640625 L 37.289062 230.640625 C 37.175781 230.40625 37.054688 230.167969 36.9375 229.929688 L 144.535156 229.929688 C 142.507812 225.65625 141.019531 220.285156 140.449219 214.441406 C 139.992188 209.757812 140.183594 205.371094 140.890625 201.617188 C 140.835938 196.703125 142.160156 192.414062 145.824219 190.707031 C 146.117188 190.570312 146.414062 190.460938 146.707031 190.347656 C 147.753906 189.644531 148.894531 189.265625 150.121094 189.265625 C 150.621094 189.265625 151.113281 189.335938 151.609375 189.453125 C 156.519531 189.566406 160.890625 192.703125 162.960938 197.910156 C 167.101562 208.320312 172.625 220.023438 177.71875 229.929688 Z M 172.324219 210.359375 L 172.402344 209.652344 L 169.5625 209.652344 C 169.644531 209.886719 169.722656 210.125 169.800781 210.359375 Z M 174.652344 189.367188 L 160.757812 189.367188 C 160.839844 189.515625 160.921875 189.660156 160.996094 189.804688 C 161.039062 189.894531 161.085938 189.988281 161.132812 190.078125 L 174.574219 190.078125 Z M 341.070312 108.246094 L 32.851562 108.246094 C 32.722656 108.484375 32.597656 108.722656 32.476562 108.957031 L 341.242188 108.957031 C 341.183594 108.722656 341.128906 108.484375 341.070312 108.246094 " fill-opacity="1" fill-rule="nonzero"/></g><g clip-path="url(#a7e7982aee)"><path fill="#393a3f" d="M 263.859375 252.398438 L 243.878906 252.460938 L 233.890625 252.492188 L 223.902344 252.59375 L 223.902344 252.914062 L 233.890625 253.011719 L 243.878906 253.042969 L 263.859375 253.105469 L 283.835938 253.03125 L 293.828125 252.992188 L 303.816406 252.890625 L 303.816406 252.617188 L 293.828125 252.515625 L 283.835938 252.472656 Z M 255.480469 95.339844 L 248.261719 95.339844 L 248.261719 96.046875 L 255.480469 96.046875 Z M 259.242188 93.679688 L 259.242188 92.972656 L 254.644531 92.972656 L 254.644531 93.679688 Z M 252.855469 92.972656 L 248.261719 92.972656 L 248.261719 93.679688 L 252.855469 93.679688 Z M 259.242188 90.609375 L 248.261719 90.609375 L 248.261719 91.316406 L 259.242188 91.316406 Z M 264.167969 41.21875 C 265.195312 41.21875 266.027344 40.386719 266.027344 39.363281 C 266.027344 38.339844 265.195312 37.507812 264.167969 37.507812 C 263.144531 37.507812 262.316406 38.339844 262.316406 39.363281 C 262.316406 40.386719 263.144531 41.21875 264.167969 41.21875 Z M 163.335938 41.21875 C 164.359375 41.21875 165.191406 40.386719 165.191406 39.363281 C 165.191406 38.339844 164.359375 37.507812 163.335938 37.507812 C 162.308594 37.507812 161.476562 38.339844 161.476562 39.363281 C 161.476562 40.386719 162.308594 41.21875 163.335938 41.21875 Z M 90.851562 96.875 L 83.632812 96.875 L 83.632812 97.585938 L 90.851562 97.585938 Z M 94.613281 95.21875 L 94.613281 94.511719 L 90.015625 94.511719 L 90.015625 95.21875 Z M 88.230469 94.511719 L 83.632812 94.511719 L 83.632812 95.21875 L 88.230469 95.21875 Z M 94.613281 92.148438 L 83.632812 92.148438 L 83.632812 92.855469 L 94.613281 92.855469 Z M 64.753906 41.21875 C 65.777344 41.21875 66.609375 40.386719 66.609375 39.363281 C 66.609375 38.339844 65.777344 37.507812 64.753906 37.507812 C 63.730469 37.507812 62.898438 38.339844 62.898438 39.363281 C 62.898438 40.386719 63.730469 41.21875 64.753906 41.21875 Z M 51.558594 148.988281 L 52.265625 148.988281 L 52.265625 148.230469 L 62.148438 148.230469 L 62.148438 148.988281 L 62.859375 148.988281 L 62.859375 148.230469 L 72.742188 148.230469 L 72.742188 148.988281 L 73.453125 148.988281 L 73.453125 148.230469 L 83.335938 148.230469 L 83.335938 148.988281 L 84.046875 148.988281 L 84.046875 148.230469 L 93.929688 148.230469 L 93.929688 148.988281 L 94.636719 148.988281 L 94.636719 148.230469 L 97.867188 148.230469 L 97.867188 147.519531 L 94.636719 147.519531 L 94.636719 146.765625 L 93.929688 146.765625 L 93.929688 147.519531 L 84.046875 147.519531 L 84.046875 146.765625 L 83.335938 146.765625 L 83.335938 147.519531 L 73.453125 147.519531 L 73.453125 146.765625 L 72.742188 146.765625 L 72.742188 147.519531 L 62.859375 147.519531 L 62.859375 146.765625 L 62.148438 146.765625 L 62.148438 147.519531 L 52.265625 147.519531 L 52.265625 146.765625 L 51.558594 146.765625 L 51.558594 147.519531 L 48.398438 147.519531 L 48.398438 148.230469 L 51.558594 148.230469 Z M 281.84375 121.761719 C 281.84375 121.371094 281.523438 121.050781 281.132812 121.050781 L 189.492188 121.050781 C 189.097656 121.050781 188.78125 121.371094 188.78125 121.761719 C 188.78125 122.15625 189.097656 122.46875 189.492188 122.46875 L 281.132812 122.46875 C 281.523438 122.46875 281.84375 122.15625 281.84375 121.761719 Z M 261.117188 222.644531 L 256.390625 222.644531 C 255.996094 222.644531 255.679688 222.960938 255.679688 223.351562 C 255.679688 223.746094 255.996094 224.0625 256.390625 224.0625 L 261.117188 224.0625 C 261.507812 224.0625 261.828125 223.746094 261.828125 223.351562 C 261.828125 222.960938 261.507812 222.644531 261.117188 222.644531 Z M 262.410156 218.71875 C 262.410156 218.328125 262.089844 218.011719 261.699219 218.011719 L 256.972656 218.011719 C 256.582031 218.011719 256.261719 218.328125 256.261719 218.71875 C 256.261719 219.109375 256.582031 219.429688 256.972656 219.429688 L 261.699219 219.429688 C 262.089844 219.429688 262.410156 219.109375 262.410156 218.71875 Z M 263.574219 209.449219 C 263.574219 209.058594 263.257812 208.738281 262.863281 208.738281 L 258.136719 208.738281 C 257.746094 208.738281 257.425781 209.058594 257.425781 209.449219 C 257.425781 209.84375 257.746094 210.15625 258.136719 210.15625 L 262.863281 210.15625 C 263.257812 210.15625 263.574219 209.84375 263.574219 209.449219 Z M 264.15625 204.816406 C 264.15625 204.425781 263.839844 204.105469 263.445312 204.105469 L 258.71875 204.105469 C 258.324219 204.105469 258.011719 204.425781 258.011719 204.816406 C 258.011719 205.207031 258.324219 205.523438 258.71875 205.523438 L 263.445312 205.523438 C 263.839844 205.523438 264.15625 205.207031 264.15625 204.816406 Z M 264.742188 200.183594 C 264.742188 199.789062 264.421875 199.472656 264.03125 199.472656 L 259.300781 199.472656 C 258.910156 199.472656 258.59375 199.789062 258.59375 200.183594 C 258.59375 200.574219 258.910156 200.890625 259.300781 200.890625 L 264.03125 200.890625 C 264.421875 200.890625 264.742188 200.574219 264.742188 200.183594 Z M 197.484375 197.441406 C 197.414062 198.023438 197.824219 198.492188 198.402344 198.492188 C 198.980469 198.492188 199.511719 198.023438 199.582031 197.441406 C 199.65625 196.863281 199.246094 196.394531 198.664062 196.394531 C 198.085938 196.394531 197.558594 196.863281 197.484375 197.441406 Z M 206.039062 132.164062 C 205.96875 132.742188 206.378906 133.210938 206.957031 133.210938 C 207.539062 133.210938 208.066406 132.742188 208.136719 132.164062 C 208.210938 131.582031 207.800781 131.113281 207.222656 131.113281 C 206.640625 131.113281 206.113281 131.582031 206.039062 132.164062 Z M 216.539062 157.082031 C 216.148438 157.082031 215.832031 157.398438 215.832031 157.792969 C 215.832031 158.183594 216.148438 158.5 216.539062 158.5 L 225.230469 158.5 C 225.621094 158.5 225.941406 158.183594 225.941406 157.792969 C 225.941406 157.398438 225.621094 157.082031 225.230469 157.082031 Z M 267.398438 179.039062 C 267.398438 178.648438 267.078125 178.328125 266.6875 178.328125 L 261.957031 178.328125 C 261.566406 178.328125 261.25 178.648438 261.25 179.039062 C 261.25 179.433594 261.566406 179.75 261.957031 179.75 L 266.6875 179.75 C 267.078125 179.75 267.398438 179.433594 267.398438 179.039062 Z M 267.980469 174.40625 C 267.980469 174.011719 267.660156 173.695312 267.269531 173.695312 L 262.539062 173.695312 C 262.148438 173.695312 261.832031 174.011719 261.832031 174.40625 C 261.832031 174.796875 262.148438 175.117188 262.539062 175.117188 L 267.269531 175.117188 C 267.660156 175.117188 267.980469 174.796875 267.980469 174.40625 Z M 268.5625 169.769531 C 268.5625 169.378906 268.242188 169.0625 267.851562 169.0625 L 263.121094 169.0625 C 262.730469 169.0625 262.414062 169.378906 262.414062 169.769531 C 262.414062 170.164062 262.730469 170.480469 263.121094 170.480469 L 267.851562 170.480469 C 268.242188 170.480469 268.5625 170.164062 268.5625 169.769531 Z M 269.144531 165.136719 C 269.144531 164.746094 268.828125 164.429688 268.433594 164.429688 L 263.707031 164.429688 C 263.3125 164.429688 262.996094 164.746094 262.996094 165.136719 C 262.996094 165.527344 263.3125 165.847656 263.707031 165.847656 L 268.433594 165.847656 C 268.828125 165.847656 269.144531 165.527344 269.144531 165.136719 Z M 270.308594 155.871094 C 270.308594 155.476562 269.992188 155.160156 269.601562 155.160156 L 264.871094 155.160156 C 264.480469 155.160156 264.160156 155.476562 264.160156 155.871094 C 264.160156 156.261719 264.480469 156.578125 264.871094 156.578125 L 269.601562 156.578125 C 269.992188 156.578125 270.308594 156.261719 270.308594 155.871094 Z M 270.890625 151.234375 C 270.890625 150.84375 270.574219 150.523438 270.183594 150.523438 L 265.453125 150.523438 C 265.0625 150.523438 264.742188 150.84375 264.742188 151.234375 C 264.742188 151.625 265.0625 151.945312 265.453125 151.945312 L 270.183594 151.945312 C 270.574219 151.945312 270.890625 151.625 270.890625 151.234375 Z M 271.472656 146.601562 C 271.472656 146.207031 271.15625 145.890625 270.765625 145.890625 L 266.039062 145.890625 C 265.644531 145.890625 265.328125 146.207031 265.328125 146.601562 C 265.328125 146.992188 265.644531 147.3125 266.039062 147.3125 L 270.765625 147.3125 C 271.15625 147.3125 271.472656 146.992188 271.472656 146.601562 Z M 272.054688 141.964844 C 272.054688 141.574219 271.738281 141.257812 271.347656 141.257812 L 266.617188 141.257812 C 266.226562 141.257812 265.910156 141.574219 265.910156 141.964844 C 265.910156 142.355469 266.226562 142.675781 266.617188 142.675781 L 271.347656 142.675781 C 271.738281 142.675781 272.054688 142.355469 272.054688 141.964844 Z M 272.636719 137.332031 C 272.636719 136.941406 272.320312 136.621094 271.929688 136.621094 L 267.199219 136.621094 C 266.808594 136.621094 266.492188 136.941406 266.492188 137.332031 C 266.492188 137.722656 266.808594 138.039062 267.199219 138.039062 L 271.929688 138.039062 C 272.320312 138.039062 272.636719 137.722656 272.636719 137.332031 Z M 163.957031 140.65625 L 167.292969 140.492188 C 167.453125 138.546875 168.015625 136.753906 168.9375 136.300781 C 167.957031 136.195312 167.003906 136.226562 166.277344 136.542969 C 166.230469 134.082031 165.257812 132.773438 164.648438 131.226562 C 164.636719 132.992188 165.117188 132.449219 164.933594 134.820312 C 164.832031 136.132812 165.097656 137.480469 164.789062 138.761719 C 164.628906 139.4375 164.3125 140.054688 163.957031 140.65625 Z M 168.003906 140.457031 L 170.78125 140.316406 C 170.570312 138.195312 169.894531 136.898438 169.398438 136.898438 C 168.894531 136.898438 168.195312 138.253906 168.003906 140.457031 Z M 170.835938 141.023438 L 167.957031 141.167969 C 167.949219 141.332031 167.949219 141.503906 167.949219 141.675781 C 167.949219 144.59375 168.808594 146.457031 169.398438 146.457031 C 169.988281 146.457031 170.851562 144.59375 170.851562 141.675781 C 170.851562 141.453125 170.84375 141.238281 170.835938 141.023438 Z M 103.949219 169.535156 C 103.179688 164.464844 104.660156 159.09375 107.921875 155.136719 C 109.117188 153.6875 110.59375 152.308594 110.960938 150.464844 C 111.335938 148.566406 110.4375 146.675781 110.023438 144.785156 C 109.238281 141.171875 110.355469 137.195312 112.910156 134.523438 C 114.871094 132.472656 117.582031 131.171875 119.238281 128.867188 C 120.625 126.933594 121.113281 124.523438 122.0625 122.34375 C 124.730469 116.238281 131.476562 112.175781 138.121094 112.667969 C 139.972656 110.367188 143.546875 109.289062 146.449219 109.800781 C 149.351562 110.316406 151.933594 111.964844 154.195312 113.859375 C 161.300781 112.769531 170.234375 119.550781 172.714844 137.140625 C 172.046875 136.941406 171.117188 136.675781 170.136719 136.480469 C 171.066406 137.273438 171.5625 139.53125 171.5625 141.675781 C 171.5625 144.335938 170.800781 147.167969 169.398438 147.167969 C 167.996094 147.167969 167.238281 144.335938 167.238281 141.675781 C 167.238281 141.519531 167.242188 141.363281 167.246094 141.203125 L 165.640625 141.285156 C 165.949219 141.449219 166.175781 142.054688 166.175781 142.78125 C 166.175781 143.636719 165.863281 144.328125 165.472656 144.328125 C 165.082031 144.328125 164.769531 143.636719 164.769531 142.78125 C 164.769531 142.078125 164.984375 141.488281 165.28125 141.300781 L 163.5 141.390625 C 163.078125 142.050781 162.652344 142.714844 162.363281 143.441406 C 161.046875 146.765625 162.914062 150.542969 162.390625 154.085938 C 162.058594 156.308594 160.816406 158.28125 160.140625 160.425781 C 159.1875 163.46875 159.859375 167.675781 161.257812 170.542969 L 151.417969 170.542969 C 150.800781 168.222656 150.007812 166.117188 149.921875 163.722656 C 149.265625 166.230469 148.980469 168.515625 148.761719 171.101562 C 147.550781 167.832031 146.75 164.648438 146.667969 161.167969 C 146.320312 163.953125 146.203125 166.746094 145.855469 169.535156 Z M 170.464844 265.265625 C 171.554688 266.632812 172.75 267.925781 174.058594 269.105469 C 175.355469 270.285156 176.800781 271.332031 178.394531 272.136719 C 179.195312 272.519531 180.039062 272.832031 180.910156 273.050781 C 181.800781 273.242188 182.65625 273.339844 183.515625 273.460938 C 185.246094 273.679688 186.976562 273.894531 188.707031 274.050781 C 192.171875 274.378906 195.648438 274.597656 199.128906 274.660156 C 199.214844 274.660156 199.292969 274.59375 199.292969 274.507812 C 199.300781 274.417969 199.230469 274.34375 199.140625 274.339844 C 197.410156 274.242188 195.679688 274.101562 193.953125 273.941406 C 192.222656 273.792969 190.496094 273.625 188.773438 273.425781 C 187.050781 273.222656 185.328125 273.023438 183.609375 272.785156 C 182.753906 272.660156 181.878906 272.558594 181.074219 272.375 C 180.257812 272.164062 179.464844 271.867188 178.703125 271.5 C 175.648438 269.984375 173.136719 267.511719 170.929688 264.882812 C 169.820312 263.5625 168.792969 262.167969 167.828125 260.734375 C 166.851562 259.304688 165.933594 257.828125 165.109375 256.3125 L 165.109375 256.304688 C 165.070312 256.242188 164.992188 256.21875 164.925781 256.25 C 164.859375 256.285156 164.832031 256.363281 164.867188 256.429688 C 166.417969 259.558594 168.28125 262.527344 170.464844 265.265625 Z M 146.726562 222.386719 C 146.332031 222.152344 145.96875 221.878906 145.621094 221.582031 C 145.273438 221.28125 144.957031 220.9375 144.636719 220.582031 C 144.597656 220.539062 144.539062 220.523438 144.480469 220.546875 C 144.414062 220.574219 144.375 220.652344 144.402344 220.722656 C 144.773438 221.652344 145.492188 222.449219 146.347656 222.988281 C 146.78125 223.257812 147.238281 223.476562 147.714844 223.628906 C 148.117188 223.753906 148.523438 223.839844 148.9375 223.894531 C 150.304688 227.003906 151.722656 230.09375 153.148438 233.179688 C 154.777344 236.609375 156.417969 240.03125 158.101562 243.433594 C 159.789062 246.839844 161.511719 250.222656 163.3125 253.566406 C 163.351562 253.644531 163.449219 253.675781 163.523438 253.636719 C 163.601562 253.597656 163.636719 253.5 163.597656 253.421875 C 162.757812 251.71875 161.941406 250.007812 161.125 248.296875 L 158.667969 243.160156 L 153.789062 232.875 C 152.160156 229.453125 150.570312 226.003906 149 222.554688 C 148.210938 220.828125 147.445312 219.09375 146.699219 217.355469 C 145.960938 215.609375 145.203125 213.867188 144.652344 212.0625 L 144.648438 212.054688 C 144.628906 211.988281 144.554688 211.949219 144.480469 211.96875 C 144.410156 211.988281 144.367188 212.0625 144.390625 212.132812 C 145.441406 215.808594 146.960938 219.300781 148.449219 222.796875 C 148.535156 222.988281 148.625 223.183594 148.710938 223.378906 C 148.453125 223.265625 148.191406 223.160156 147.945312 223.042969 C 147.523438 222.839844 147.113281 222.632812 146.726562 222.386719 Z M 165.34375 155.035156 C 165.613281 155.207031 165.914062 155.316406 166.222656 155.390625 C 166.53125 155.453125 166.84375 155.480469 167.15625 155.453125 C 167.308594 155.441406 167.460938 155.410156 167.613281 155.386719 C 167.761719 155.34375 167.910156 155.304688 168.050781 155.246094 C 168.09375 155.226562 168.128906 155.183594 168.136719 155.136719 C 168.148438 155.0625 168.09375 154.988281 168.015625 154.976562 C 167.433594 154.886719 166.898438 154.824219 166.378906 154.699219 C 166.121094 154.640625 165.871094 154.558594 165.621094 154.472656 C 165.375 154.386719 165.121094 154.269531 164.890625 154.15625 L 164.859375 154.136719 C 164.8125 154.117188 164.753906 154.117188 164.707031 154.144531 C 164.628906 154.191406 164.601562 154.289062 164.648438 154.363281 C 164.824219 154.667969 165.070312 154.863281 165.34375 155.035156 Z M 312.109375 275.4375 L 299.828125 256.972656 L 299.828125 256.808594 L 290.945312 256.710938 L 282.0625 256.679688 L 264.292969 256.617188 L 246.523438 256.695312 L 237.640625 256.734375 L 228.753906 256.835938 L 228.753906 257.105469 L 228.960938 257.109375 L 229.660156 257.578125 L 232.015625 261.621094 L 227.871094 261.03125 C 227.898438 261.023438 227.925781 261.011719 227.949219 261 C 228.109375 260.917969 228.246094 260.796875 228.367188 260.667969 C 228.480469 260.527344 228.585938 260.378906 228.644531 260.210938 C 228.707031 260.039062 228.746094 259.863281 228.726562 259.675781 C 228.722656 259.640625 228.707031 259.605469 228.6875 259.578125 C 228.621094 259.503906 228.507812 259.496094 228.433594 259.558594 L 228.425781 259.5625 C 228.296875 259.675781 228.203125 259.785156 228.101562 259.890625 C 228.003906 259.992188 227.917969 260.101562 227.832031 260.207031 C 227.746094 260.316406 227.652344 260.417969 227.570312 260.535156 C 227.480469 260.652344 227.390625 260.769531 227.300781 260.917969 L 227.296875 260.921875 C 227.296875 260.925781 227.296875 260.929688 227.292969 260.9375 L 227.25 260.871094 L 223.167969 260.007812 C 223.191406 259.90625 223.21875 259.8125 223.238281 259.714844 C 223.3125 259.375 223.332031 259.027344 223.332031 258.679688 C 223.324219 258.332031 223.296875 257.984375 223.21875 257.648438 C 223.148438 257.308594 223.046875 256.972656 222.886719 256.664062 C 222.859375 256.609375 222.804688 256.574219 222.742188 256.574219 C 222.652344 256.570312 222.574219 256.648438 222.574219 256.738281 C 222.570312 257.074219 222.589844 257.398438 222.597656 257.722656 L 222.625 258.691406 L 222.644531 259.660156 C 222.644531 259.867188 222.652344 260.078125 222.65625 260.289062 L 220.617188 260 C 213.53125 258.9375 206.4375 257.859375 199.414062 256.476562 C 197.660156 256.125 195.902344 255.769531 194.210938 255.273438 C 193.792969 255.140625 193.367188 255.003906 193.011719 254.820312 C 192.820312 254.714844 192.789062 254.691406 192.648438 254.464844 L 192.285156 253.921875 C 191.816406 253.164062 191.347656 252.402344 190.890625 251.632812 C 189.054688 248.554688 187.261719 245.449219 185.46875 242.347656 L 179.121094 231.328125 L 254.898438 231.328125 L 259.070312 247.285156 L 289.136719 247.285156 L 284.96875 231.328125 L 330.625 231.328125 C 335.082031 231.328125 338.820312 227.976562 339.3125 223.550781 L 350.296875 124.453125 C 350.871094 119.277344 346.820312 114.75 341.609375 114.75 L 187.761719 114.75 C 183.304688 114.75 179.566406 118.101562 179.074219 122.527344 L 169.453125 209.332031 C 170.359375 211.988281 171.109375 214.582031 171.589844 216.960938 L 182.023438 122.855469 C 182.347656 119.925781 184.8125 117.71875 187.761719 117.71875 L 341.609375 117.71875 C 343.273438 117.71875 344.804688 118.402344 345.910156 119.640625 C 347.023438 120.878906 347.53125 122.472656 347.347656 124.128906 L 336.363281 223.226562 C 336.039062 226.152344 333.570312 228.359375 330.625 228.359375 L 261.121094 228.359375 C 261.195312 228.25 261.242188 228.125 261.242188 227.988281 C 261.242188 227.59375 260.929688 227.277344 260.535156 227.277344 L 255.808594 227.277344 C 255.414062 227.277344 255.097656 227.59375 255.097656 227.988281 C 255.097656 228.125 255.148438 228.25 255.21875 228.359375 L 177.414062 228.359375 L 174.726562 223.703125 C 174.691406 223.640625 174.613281 223.617188 174.546875 223.652344 C 174.480469 223.6875 174.457031 223.769531 174.492188 223.835938 L 176.996094 228.359375 L 176.914062 228.359375 C 177.425781 229.367188 177.9375 230.355469 178.441406 231.328125 L 178.632812 231.328125 L 179.695312 233.253906 L 184.984375 242.625 C 186.757812 245.742188 188.53125 248.859375 190.347656 251.953125 C 190.796875 252.730469 191.265625 253.5 191.734375 254.269531 L 192.113281 254.84375 C 192.191406 254.949219 192.199219 255.015625 192.351562 255.160156 C 192.476562 255.285156 192.585938 255.335938 192.699219 255.402344 C 193.144531 255.632812 193.574219 255.769531 194.011719 255.914062 C 195.753906 256.4375 197.515625 256.804688 199.277344 257.167969 C 206.335938 258.523438 213.4375 259.554688 220.535156 260.578125 L 231.195312 262.042969 L 241.875 263.351562 C 241.960938 263.359375 242.042969 263.300781 242.054688 263.214844 C 242.066406 263.125 242.003906 263.042969 241.917969 263.035156 L 237.972656 262.472656 L 241.460938 257.226562 L 246.523438 257.246094 L 264.292969 257.324219 L 282.0625 257.261719 L 290.945312 257.230469 L 295.238281 257.179688 L 307.378906 275.4375 L 302.882812 275.4375 L 296.4375 268.144531 L 293.464844 270.097656 L 298.972656 275.4375 L 281.125 275.4375 L 297.351562 265.140625 L 274.488281 265.140625 L 277.925781 271.457031 C 278.191406 271.941406 277.992188 272.546875 277.488281 272.777344 C 276.5625 272.710938 275.511719 272.273438 274.617188 271.65625 C 274.617188 271.632812 274.625 271.617188 274.617188 271.597656 C 274.234375 270.699219 274.226562 269.703125 274.105469 268.679688 C 274.050781 268.164062 273.941406 267.636719 273.738281 267.128906 C 273.535156 266.617188 273.246094 266.15625 272.910156 265.738281 C 272.222656 264.921875 271.390625 264.273438 270.550781 263.703125 C 269.710938 263.128906 268.871094 262.585938 268.117188 261.929688 C 268.070312 261.882812 267.996094 261.878906 267.945312 261.925781 C 267.886719 261.972656 267.878906 262.054688 267.925781 262.113281 C 268.578125 262.925781 269.40625 263.558594 270.195312 264.1875 C 270.984375 264.808594 271.769531 265.421875 272.363281 266.183594 C 272.664062 266.554688 272.929688 266.953125 273.109375 267.382812 C 273.296875 267.8125 273.386719 268.285156 273.484375 268.773438 C 273.632812 269.5625 273.722656 270.433594 274.066406 271.230469 C 273.632812 270.855469 273.253906 270.445312 272.996094 270.015625 L 270.738281 266.238281 L 266.71875 265.265625 C 266.710938 265.253906 266.703125 265.246094 266.695312 265.234375 C 266.660156 265.195312 266.601562 265.171875 266.546875 265.191406 C 266.53125 265.199219 266.527344 265.210938 266.515625 265.214844 L 266.464844 265.207031 L 260.8125 269.578125 C 260.816406 269.542969 260.824219 269.515625 260.824219 269.484375 C 260.859375 269.1875 260.839844 268.890625 260.792969 268.597656 C 260.746094 268.304688 260.667969 268.015625 260.546875 267.742188 C 260.421875 267.476562 260.277344 267.214844 260.074219 266.992188 C 260.035156 266.953125 259.976562 266.933594 259.921875 266.941406 C 259.832031 266.957031 259.769531 267.046875 259.785156 267.136719 C 259.832031 267.417969 259.898438 267.675781 259.945312 267.9375 C 259.992188 268.199219 260.054688 268.457031 260.097656 268.714844 C 260.148438 268.972656 260.183594 269.234375 260.226562 269.496094 C 260.25 269.652344 260.277344 269.8125 260.300781 269.972656 L 255.808594 273.449219 C 254.53125 274.433594 253.054688 275.101562 251.5 275.4375 L 247.132812 275.4375 L 241.605469 274.671875 C 241.941406 274.371094 242.246094 274.019531 242.460938 273.605469 C 242.734375 273.097656 242.863281 272.5 242.777344 271.9375 C 242.769531 271.871094 242.710938 271.8125 242.640625 271.804688 C 242.550781 271.792969 242.472656 271.851562 242.457031 271.941406 C 242.382812 272.441406 242.207031 272.890625 241.933594 273.289062 C 241.816406 273.453125 241.683594 273.605469 241.542969 273.753906 C 241.535156 273.425781 241.492188 273.105469 241.414062 272.789062 C 241.269531 272.179688 241.015625 271.597656 240.632812 271.117188 C 240.59375 271.070312 240.53125 271.050781 240.476562 271.070312 C 240.40625 271.097656 240.371094 271.175781 240.394531 271.25 C 240.601562 271.792969 240.75 272.339844 240.816406 272.898438 C 240.878906 273.453125 240.875 274.011719 240.789062 274.554688 C 240.785156 274.574219 240.792969 274.589844 240.792969 274.609375 L 202.691406 274.335938 L 201.023438 275.4375 L 166.117188 275.4375 C 166.207031 275.675781 166.296875 275.910156 166.386719 276.148438 L 350.351562 276.148438 L 350.351562 275.4375 Z M 60.882812 275.4375 L 60.882812 276.148438 L 140.199219 276.148438 C 145.007812 276.148438 146.390625 275.4375 146.390625 275.4375 C 147.015625 275.269531 147.617188 275.042969 148.183594 274.765625 C 152.253906 272.773438 154.707031 268.136719 153.546875 263.359375 L 139.972656 207.515625 C 138.875 203.003906 134.835938 199.832031 130.199219 199.832031 L 54.363281 199.832031 C 47.851562 199.832031 43.054688 205.933594 44.589844 212.265625 L 58.164062 268.109375 C 59.046875 271.738281 61.835938 274.492188 65.304688 275.4375 Z M 171 286.511719 C 171 286.511719 170.984375 286.644531 170.945312 286.867188 L 170.949219 286.867188 C 170.453125 289.828125 165.9375 311.078125 137.910156 311.078125 C 127.648438 311.078125 120.230469 309.378906 116.101562 308.101562 C 117.570312 316.492188 124.882812 322.871094 133.691406 322.871094 L 187.605469 322.871094 C 200.957031 322.871094 213.980469 317.3125 213.980469 317.3125 L 209.796875 342.125 L 237.28125 342.125 C 237.28125 342.125 240.460938 317.3125 241.835938 300.664062 C 242.636719 290.914062 235.457031 287.789062 229.367188 286.867188 L 278.820312 286.867188 L 275.609375 314.511719 L 285.769531 316.195312 L 289.179688 286.867188 L 325.777344 286.867188 L 330.03125 323.53125 L 340.59375 325.28125 L 336.136719 286.867188 L 350.351562 286.867188 L 350.351562 286.160156 L 170.820312 286.160156 C 170.933594 286.386719 171 286.511719 171 286.511719 Z M 109.597656 286.160156 L 60.882812 286.160156 L 60.882812 286.867188 L 84.320312 286.867188 C 84.296875 286.972656 84.308594 287.082031 84.277344 287.1875 L 84.183594 287.902344 C 84.113281 288.378906 84.085938 288.863281 84.039062 289.34375 L 83.960938 290.785156 L 83.921875 291.507812 L 83.902344 291.871094 C 83.910156 291.992188 83.820312 292.101562 84.050781 292.25 C 84.3125 292.15625 84.246094 292.03125 84.285156 291.914062 L 84.351562 291.554688 L 84.476562 290.84375 L 84.730469 289.421875 C 84.792969 288.941406 84.878906 288.46875 84.921875 287.988281 L 84.992188 287.273438 C 84.984375 287.136719 85.042969 287.007812 85.015625 286.867188 L 109.609375 286.867188 C 109.601562 286.632812 109.601562 286.398438 109.597656 286.160156 Z M 230.097656 132.160156 C 230.097656 131.769531 229.777344 131.449219 229.386719 131.449219 L 218.824219 131.449219 C 218.433594 131.449219 218.117188 131.769531 218.117188 132.160156 C 218.117188 132.554688 218.433594 132.871094 218.824219 132.871094 L 229.386719 132.871094 C 229.777344 132.871094 230.097656 132.554688 230.097656 132.160156 Z M 202.066406 132.164062 C 201.996094 132.742188 202.40625 133.210938 202.984375 133.210938 C 203.5625 133.210938 204.09375 132.742188 204.164062 132.164062 C 204.238281 131.582031 203.828125 131.113281 203.246094 131.113281 C 202.671875 131.113281 202.140625 131.582031 202.066406 132.164062 Z M 199.015625 133.210938 C 198.433594 133.210938 198.023438 132.742188 198.097656 132.164062 C 198.167969 131.582031 198.699219 131.113281 199.277344 131.113281 C 199.855469 131.113281 200.265625 131.582031 200.195312 132.164062 C 200.121094 132.742188 199.59375 133.210938 199.015625 133.210938 " fill-opacity="1" fill-rule="nonzero"/></g><g clip-path="url(#9b294b8756)"><path fill="#777b85" d="M 298.351562 247.285156 L 292.636719 247.285156 L 288.46875 231.328125 L 284.96875 231.328125 L 289.136719 247.285156 L 229.367188 247.285156 C 226.347656 247.285156 223.902344 249.734375 223.902344 252.753906 L 303.816406 252.753906 C 303.816406 249.734375 301.371094 247.285156 298.351562 247.285156 Z M 105.046875 246.914062 L 93.273438 246.914062 C 92.519531 246.914062 91.878906 247.476562 91.796875 248.226562 L 82.261719 330.839844 C 82.160156 331.722656 82.851562 332.496094 83.738281 332.496094 L 95.515625 332.496094 C 96.269531 332.496094 96.90625 331.933594 96.992188 331.179688 L 106.523438 248.570312 C 106.628906 247.6875 105.9375 246.914062 105.046875 246.914062 Z M 280.589844 275.777344 L 285.367188 275.777344 L 296.25 268.625 L 302.574219 275.777344 L 306.101562 275.777344 L 297.351562 265.140625 Z M 346.292969 114.75 L 341.609375 114.75 C 346.820312 114.75 350.871094 119.277344 350.296875 124.453125 L 339.3125 223.550781 C 338.820312 227.976562 335.082031 231.328125 330.625 231.328125 L 335.308594 231.328125 C 339.761719 231.328125 343.503906 227.976562 343.992188 223.550781 L 354.980469 124.453125 C 355.554688 119.277344 351.5 114.75 346.292969 114.75 Z M 230.097656 132.160156 C 230.097656 131.769531 229.777344 131.449219 229.386719 131.449219 L 218.824219 131.449219 C 218.433594 131.449219 218.117188 131.769531 218.117188 132.160156 C 218.117188 132.554688 218.433594 132.871094 218.824219 132.871094 L 229.386719 132.871094 C 229.777344 132.871094 230.097656 132.554688 230.097656 132.160156 Z M 203.246094 131.113281 C 202.671875 131.113281 202.140625 131.582031 202.066406 132.164062 C 201.996094 132.742188 202.40625 133.210938 202.984375 133.210938 C 203.5625 133.210938 204.09375 132.742188 204.164062 132.164062 C 204.238281 131.582031 203.828125 131.113281 203.246094 131.113281 Z M 199.277344 131.113281 C 198.699219 131.113281 198.167969 131.582031 198.097656 132.164062 C 198.023438 132.742188 198.433594 133.210938 199.015625 133.210938 C 199.59375 133.210938 200.121094 132.742188 200.195312 132.164062 C 200.265625 131.582031 199.855469 131.113281 199.277344 131.113281 Z M 208.136719 132.164062 C 208.066406 132.742188 207.539062 133.210938 206.957031 133.210938 C 206.378906 133.210938 205.96875 132.742188 206.039062 132.164062 C 206.113281 131.582031 206.640625 131.113281 207.222656 131.113281 C 207.800781 131.113281 208.210938 131.582031 208.136719 132.164062 " fill-opacity="1" fill-rule="nonzero"/></g></svg>